<svg id="Layer_1" data-name="Layer 1" xmlns="http://www.w3.org/2000/svg" xmlns:xlink="http://www.w3.org/1999/xlink" viewBox="0 0 131.39 151.84"><defs><style>.cls-1{fill:url(#linear-gradient);}.cls-2{fill:url(#linear-gradient-2);}.cls-3{fill:url(#linear-gradient-3);}.cls-4{fill:url(#linear-gradient-4);}.cls-5{fill:#fff;}</style><linearGradient id="linear-gradient" x1="-922.37" y1="-245" x2="-919.28" y2="-136" gradientTransform="translate(986.17 214.45)" gradientUnits="userSpaceOnUse"><stop offset="0" stop-color="#1d274e"/><stop offset="0.31" stop-color="#2c5492"/><stop offset="0.61" stop-color="#4283a1"/><stop offset="0.84" stop-color="#52fff7"/></linearGradient><linearGradient id="linear-gradient-2" x1="-920.47" y1="-198.81" x2="-920.47" y2="-110.44" gradientTransform="translate(986.17 214.45)" gradientUnits="userSpaceOnUse"><stop offset="0" stop-color="#1d274e"/><stop offset="0.44" stop-color="#2c5492"/><stop offset="0.7" stop-color="#4283a1"/><stop offset="1" stop-color="#52fff7"/></linearGradient><linearGradient id="linear-gradient-3" x1="-905.37" y1="-136.01" x2="-904.34" y2="-84.35" gradientTransform="translate(986.17 214.45)" gradientUnits="userSpaceOnUse"><stop offset="0" stop-color="#1d274e"/><stop offset="0.31" stop-color="#2c5492"/><stop offset="0.69" stop-color="#4283a1"/><stop offset="0.93" stop-color="#52fff7"/></linearGradient><linearGradient id="linear-gradient-4" x1="-932.14" y1="-90.66" x2="-932.14" y2="-63.09" gradientTransform="translate(986.17 214.45)" gradientUnits="userSpaceOnUse"><stop offset="0.17" stop-color="#2c5492"/><stop offset="0.56" stop-color="#4181a0"/><stop offset="1" stop-color="#4283a1"/></linearGradient></defs><title>aurora1</title><path class="cls-1" d="M131.36,0V24.26C128,31.06,121.15,37.2,113.1,41.87c-21.54,12.38-52.21,7.32-77.69,12C24,55.88,11.61,60.27,4.33,66.6A13.33,13.33,0,0,0,0,72.54V0Z"/><path class="cls-2" d="M131.39,24.26v83.1c-2.21-7.08-13.13-12.7-23.93-15.2-18-4.11-37.53-2.69-56-1.42A188.48,188.48,0,0,1,32,91.29v-.08l-.24,0a83.3,83.3,0,0,1-8.47-.75C12.29,88.88,2.09,83.77.06,77.36A.45.45,0,0,1,0,77.09l.06-4.55a13.33,13.33,0,0,1,4.3-5.94c7.27-6.33,19.69-10.72,31.08-12.78,25.48-4.63,56.15.43,77.69-12C121.18,37.2,128,31.06,131.39,24.26Z"/><path class="cls-3" d="M131.36,107.36v4.91l-.18.83-.06.08a14,14,0,0,1-1.85,3.24c-4.42,5.78-27.81,6.77-36.88,7.2-4.71.24-10.32.16-16.23.16-16.46,0-35.32.48-44.27,8.67V121.88L32,91.29a188.48,188.48,0,0,0,19.45-.55c18.5-1.27,38.07-2.69,56,1.42C118.23,94.66,129.15,100.28,131.36,107.36Z"/><path class="cls-4" d="M31.89,132.45v5.85c0,8.72,14.16,11.71,25,12.59,1.8.14,16.23,1,19.32,1V123.78C59.7,123.78,40.84,124.26,31.89,132.45Z"/><circle class="cls-5" cx="7.37" cy="8.03" r="0.45"/><circle class="cls-5" cx="74.08" cy="8.48" r="0.45"/><circle class="cls-5" cx="37.5" cy="13.9" r="0.45"/><circle class="cls-5" cx="99.92" cy="17.58" r="0.45"/><circle class="cls-5" cx="35.24" cy="34.35" r="0.45"/><circle class="cls-5" cx="84.72" cy="26.03" r="0.45"/><circle class="cls-5" cx="10.59" cy="47.51" r="0.45"/><circle class="cls-5" cx="60.59" cy="26.93" r="0.45"/><circle class="cls-5" cx="117.63" cy="7.58" r="0.45"/></svg>