<?xml version="1.0" encoding="utf-8"?>
<!-- Generator: Adobe Illustrator 23.0.1, SVG Export Plug-In . SVG Version: 6.00 Build 0)  -->
<svg version="1.1" id="Layer_1" xmlns="http://www.w3.org/2000/svg" xmlns:xlink="http://www.w3.org/1999/xlink" x="0px" y="0px"
	 viewBox="0 0 2742.2 1105.4" style="enable-background:new 0 0 2742.2 1105.4;" xml:space="preserve">
<style type="text/css">
	.st0{fill:#EDEDEF;}
	.st1{fill:url(#SVGID_1_);}
	.st2{fill:url(#SVGID_2_);}
	.st3{fill:url(#SVGID_3_);}
	.st4{fill:url(#SVGID_4_);}
	.st5{fill:#FFFFFF;}
</style>
<title>Aurora-Logo</title>
<path class="st0" d="M1891.9,457.6c-22.1,0-39.9,7.8-53.3,23.3c-13.5,15.5-20.2,36-20.2,61.5v132.9c0,25.2,6.7,45.4,20.2,60.7
	c13.5,15.3,31.2,23,53.3,23c22.1,0,39.9-7.7,53.6-23c13.6-15.3,20.5-35.6,20.4-60.7V542.4c0-25.5-6.8-46-20.4-61.5
	C1931.8,465.4,1914,457.6,1891.9,457.6z M1711.4,295.3c-4.1-3.2-9.2-4.8-15.4-4.8c-5.9,0-10.9,1.5-14.8,4.6c-4,3.1-6.7,7.5-7.7,12.5
	c-0.9,4.1-1.4,8.2-1.4,12.4c-0.1,0.3,0.2,0.7,0.5,0.7c0.1,0,0.1,0,0.2,0h47.1c0.4,0,0.7-0.2,0.7-0.5c0-0.1,0-0.1,0-0.2
	c-0.1-3.9-0.4-7.8-1.1-11.6C1718.4,303.2,1715.6,298.6,1711.4,295.3z M982.2,482.3c-0.2-0.8-1.1-1.3-1.9-1c-0.5,0.1-0.9,0.5-1,1
	l-56.5,203c-0.3,0.6-0.2,1.4,0.2,1.9c0.4,0.5,1,0.8,1.7,0.8h112c0.7,0,1.3-0.3,1.7-0.8c0.5-0.5,0.6-1.3,0.2-1.9L982.2,482.3z
	 M1394.9,256.5h-34.6c-0.4,0-0.7,0.2-0.7,0.6c0,0.1,0,0.1,0,0.2v47.3c0,0.4,0.2,0.7,0.6,0.7c0.1,0,0.1,0,0.2,0h34.6
	c7.2,0,13-2.2,17.5-6.6c4.5-4.4,6.7-10.3,6.7-17.5c0-7.4-2.2-13.3-6.7-17.8C1407.8,258.8,1402,256.5,1394.9,256.5z M1653.8,571.7
	c10.4-11.5,15.6-26.7,15.6-45.7c0-19.3-5.2-34.8-15.6-46.5s-24.2-17.5-41.4-17.5h-81.3c-1.3,0-2,0.7-2,2.2v122.5
	c0,1.5,0.6,2.2,2,2.2h81.3C1629.6,588.9,1643.4,583.2,1653.8,571.7z M1538.1,358.1c4.4,3.3,9.8,5,15.4,4.8
	c11,0.4,20.8-7.1,23.3-17.8c1.1-4.4,1.6-10.5,1.6-18.4c0-8-0.5-14.1-1.5-18.4c-1.3-5.2-4.2-9.8-8.5-13c-4.4-3.3-9.7-5-15.2-4.8
	c-11.1-0.4-20.9,7-23.5,17.8c-1,4.3-1.4,10.4-1.4,18.4c0,8,0.5,14.1,1.4,18.4C1531,350.3,1533.9,354.9,1538.1,358.1z M2255.2,571.7
	c10.4-11.5,15.6-26.7,15.6-45.7c0-19.3-5.2-34.8-15.6-46.5c-10.4-11.7-24.2-17.5-41.4-17.5h-81.3c-1.3,0-2,0.7-1.9,2.2v122.6
	c0,1.5,0.6,2.2,1.9,2.2h81.3C2231,588.9,2244.8,583.2,2255.2,571.7z M2510.9,482.3c-0.2-0.8-1.1-1.3-1.9-1c-0.5,0.1-0.9,0.5-1,1
	l-56.5,203c-0.3,0.6-0.2,1.4,0.3,1.9c0.4,0.5,1,0.8,1.7,0.8h112c0.7,0,1.3-0.3,1.7-0.8c0.5-0.5,0.6-1.3,0.3-1.9L2510.9,482.3z
	 M2633.9,0H108.4C48.5,0,0,48.5,0,108.4V997c0,59.8,48.5,108.4,108.4,108.4h2525.5c59.8,0,108.4-48.5,108.4-108.4c0,0,0,0,0,0V108.4
	C2742.2,48.5,2693.7,0,2633.9,0z M1845.6,282.5c-0.1-0.9,0.5-1.7,1.4-1.8c0.1,0,0.3,0,0.5,0h11.1c0.3,0.1,0.7-0.2,0.7-0.5
	c0-0.1,0-0.1,0-0.2v-21.1c-0.1-0.9,0.5-1.7,1.4-1.8c0.1,0,0.3,0,0.5,0h9c0.9-0.1,1.7,0.5,1.8,1.4c0,0.1,0,0.3,0,0.5V280
	c-0.1,0.3,0.2,0.7,0.5,0.7c0.1,0,0.1,0,0.2,0h20.6c0.9-0.1,1.7,0.5,1.8,1.4c0,0.1,0,0.3,0,0.5v7.1c0.1,0.9-0.5,1.7-1.4,1.8
	c-0.1,0-0.3,0-0.5,0h-20.6c-0.4,0-0.7,0.2-0.7,0.6c0,0.1,0,0.1,0,0.2v53.7c0,5.8,1.3,9.9,3.9,12.3c2.6,2.4,6.7,3.5,12.3,3.5h4.6
	c0.9-0.1,1.7,0.5,1.8,1.4c0,0.2,0,0.3,0,0.5v7.5c0.1,0.9-0.5,1.7-1.3,1.8c-0.2,0-0.3,0-0.5,0c-1.5,0.1-3.7,0.2-6.7,0.2
	c-8.7,0-15.3-1.6-19.8-4.9s-6.7-9.3-6.7-18.2v-57.7c0-0.4-0.2-0.7-0.6-0.7c-0.1,0-0.1,0-0.2,0h-11.1c-0.9,0.1-1.7-0.5-1.8-1.3
	c0-0.2,0-0.3,0-0.5L1845.6,282.5z M1617,246.4c4.2-3.8,10.5-3.8,14.6,0c2,1.9,3,4.6,2.9,7.4c-0.1,5.7-4.8,10.3-10.5,10.2
	c-2.6,0-5.2-1.1-7-2.9C1613.3,256.9,1613.3,250.6,1617,246.4L1617,246.4z M1596.6,401.3c-0.1-0.9,0.5-1.7,1.4-1.8c0.1,0,0.3,0,0.5,0
	c13-0.1,19.5-6.4,19.5-18.7v-98.2c-0.1-0.9,0.5-1.7,1.4-1.8c0.1,0,0.3,0,0.5,0h9.3c0.9-0.1,1.7,0.5,1.8,1.4c0,0.1,0,0.3,0,0.5v98.2
	c0,10.3-2.5,17.8-7.6,22.6s-13.3,7.1-24.7,7.3c-0.9,0.1-1.7-0.5-1.8-1.4c0-0.2,0-0.3,0-0.5L1596.6,401.3z M1517.8,304.3
	c2.1-7.4,6.6-13.9,12.9-18.3c6.3-4.5,13.9-6.7,22.9-6.7c8.6,0,16,2.2,22.3,6.7c6.2,4.4,10.7,10.8,12.8,18.2
	c1.7,5.2,2.5,12.7,2.5,22.4c0,9.8-0.8,17.3-2.5,22.4c-2,7.5-6.6,14-12.8,18.5c-6.2,4.5-13.7,6.7-22.5,6.7c-8.7,0-16.3-2.3-22.6-6.7
	c-6.3-4.5-10.9-11.1-13.1-18.5c-1.7-5.6-2.6-13-2.6-22.4C1515.3,317.2,1516.1,309.8,1517.8,304.3L1517.8,304.3z M1114.7,799.5h-39.9
	c-2.9,0-4.9-1.5-5.8-4.4l-17.5-64c-0.2-0.9-1-1.6-1.9-1.6H912.6c-1,0-1.8,0.7-2,1.6l-17.5,64c-1,2.9-2.9,4.4-5.8,4.4h-39.4
	c-3.6,0-4.9-2-3.9-6L950.6,421c1-2.9,2.9-4.4,5.8-4.4h48.7c2.9,0,4.9,1.5,5.8,4.4l107.6,372.5l0.5,2.2
	C1119.1,798.3,1117.6,799.5,1114.7,799.5L1114.7,799.5z M1405.9,678.1c0,24.8-4.9,46.8-14.8,65.9c-9.9,19.1-23.9,33.9-41.9,44.3
	c-18,10.4-38.9,15.6-62.6,15.6c-23.7,0-44.6-5.2-62.6-15.6c-18-10.4-32-25.2-42.1-44.3c-10.1-19.2-15.1-41.1-15.1-65.9v-256
	c0-3.6,1.6-5.5,4.9-5.5h37c3.2,0,4.9,1.8,4.9,5.5v257.1c0,23.7,6.7,42.9,20.2,57.4c13.5,14.6,31.1,21.9,52.8,21.9
	c21.8,0,39.3-7.3,52.6-21.9c13.3-14.6,20-33.7,20-57.4V422.1c0-3.6,1.6-5.5,4.9-5.5h37c3.3,0,4.9,1.8,4.9,5.5L1405.9,678.1z
	 M1421.9,306.3c-6.6,6.4-15.3,9.7-26.1,9.7h-35.5c-0.4,0-0.7,0.2-0.7,0.6c0,0.1,0,0.1,0,0.2v54.2c0.1,0.9-0.5,1.7-1.4,1.8
	c-0.1,0-0.3,0-0.5,0h-9.3c-0.9,0.1-1.7-0.5-1.8-1.4c0-0.1,0-0.3,0-0.5V247.1c-0.1-0.9,0.5-1.7,1.4-1.8c0.1,0,0.3,0,0.5,0h47.8
	c10.7,0,19.2,3.3,25.7,9.8c6.5,6.6,9.7,15.2,9.7,25.8C1431.8,291.4,1428.5,299.9,1421.9,306.3L1421.9,306.3z M1466,317.3v53.7
	c0.1,0.9-0.5,1.7-1.4,1.8c-0.1,0-0.3,0-0.5,0h-9.3c-0.9,0.1-1.7-0.5-1.8-1.4c0-0.1,0-0.3,0-0.5v-88.4c-0.1-0.9,0.5-1.7,1.4-1.8
	c0.1,0,0.3,0,0.5,0h9.3c0.9-0.1,1.7,0.5,1.8,1.4c0,0.1,0,0.3,0,0.5v11.1c0,0.4,0.1,0.6,0.3,0.6c0.2,0.1,0.3,0,0.5-0.3
	c2.3-4.2,5.7-7.8,9.7-10.5c4.1-2.5,8.9-3.8,13.7-3.7c3.6-0.1,7.2,0.7,10.4,2.4c0.9,0.4,1.4,1.4,1.1,2.4l-2,8.9
	c-0.1,0.9-0.9,1.4-1.8,1.3c-0.2,0-0.4-0.1-0.6-0.2c-2.3-0.9-4.7-1.3-7.1-1.3l-2.4,0.2c-6,0.1-11.6,2.6-15.6,7
	C1468.1,304.9,1466,310.5,1466,317.3z M1715.2,799.6h-38.5c-2.5,0.1-4.7-1.5-5.4-3.8l-68.2-163.6c-0.2-1-1-1.7-2-1.6H1531
	c-1.3,0-2,0.7-2,2.2v161.4c0,3.7-1.6,5.5-4.9,5.5h-37c-3.2,0-4.9-1.8-4.9-5.5v-372c0-3.6,1.6-5.5,4.9-5.5h131
	c19.5,0,36.6,4.6,51.4,13.7s26.2,21.9,34.3,38.3c8.1,16.4,12.2,35.4,12.2,56.9c0,25.5-5.9,47.1-17.8,64.8
	c-11.8,17.7-28.3,29.6-49.4,35.8c-1.3,0.7-1.6,1.6-1,2.7l70.7,164.1c0.3,0.9,0.5,1.8,0.5,2.7C1719,798.3,1717.7,799.6,1715.2,799.6
	L1715.2,799.6z M1733.4,329.8c0.1,0.9-0.5,1.7-1.4,1.8c-0.1,0-0.3,0-0.5,0h-58.8c-0.4,0-0.7,0.2-0.7,0.6c0,0.1,0,0.1,0,0.2
	c0.2,6.7,0.6,11,1.1,12.9c1.2,5.2,4.2,9.8,8.6,12.9c4.4,3.1,9.9,4.7,16.7,4.7c4.7,0.1,9.4-1.1,13.5-3.5c3.9-2.3,7.1-5.7,9.1-9.8
	c0.7-1.1,1.6-1.3,2.5-0.7l7.1,4.2c0.9,0.5,1.2,1.6,0.8,2.5c0,0,0,0.1-0.1,0.1c-3.1,5.8-7.8,10.6-13.7,13.7c-6.4,3.4-13.6,5.1-20.9,5
	c-8.6-0.1-15.8-2.2-21.7-6.2c-5.9-4.1-10.3-9.9-12.6-16.7c-2.2-5.8-3.3-14.2-3.3-25.1c0-5.1,0.1-9.3,0.3-12.5
	c0.1-2.9,0.6-5.8,1.4-8.6c1.8-7.6,6.2-14.2,12.5-18.9c6.3-4.7,13.8-7.1,22.7-7.1c11,0,19.5,2.8,25.5,8.4c5.9,5.6,9.6,13.5,11.1,23.6
	c0.5,4.2,0.8,8.5,0.7,12.7L1733.4,329.8z M1758.5,348.9c-1.6-5.3-2.4-12.9-2.4-22.5c-0.1-7.5,0.7-14.9,2.4-22.2
	c2-7.3,6.5-13.7,12.7-18.1c6.3-4.5,13.8-6.8,22.6-6.8c8.8,0,16.5,2.2,23,6.7c6.5,4.5,10.7,10.1,12.6,16.7c0.5,1.8,0.9,3.6,1.1,5.5
	v0.4c0,0.9-0.5,1.4-1.6,1.6l-9.1,1.3h-0.4c-0.8,0-1.4-0.5-1.6-1.6l-0.5-2.7c-1.2-4.7-4-8.9-8-11.7c-4.5-3.3-9.9-5-15.5-4.8
	c-6.1,0-11.1,1.6-15.2,4.8c-4.1,3.2-6.9,7.8-7.9,12.8c-1.2,6-1.8,12.2-1.6,18.4c0,8,0.5,14.2,1.6,18.5c1,5.1,3.8,9.7,7.9,13
	c4.1,3.2,9.1,4.8,15.2,4.8c5.5,0.1,10.9-1.5,15.4-4.6c4.1-2.8,7-7.1,8.1-11.9v-0.7l0.2-0.7c0.1-1.2,0.8-1.7,2.2-1.5l8.9,1.5
	c1.2,0.2,1.8,0.9,1.6,2l-0.7,3.6c-1.8,7-6,12.7-12.6,17.1c-6.5,4.4-14.2,6.6-23.1,6.5c-8.7,0-16.2-2.3-22.5-6.8
	C1765.1,362.8,1760.5,356.3,1758.5,348.9L1758.5,348.9z M2012.7,673.2c0,25.9-5,48.8-15.1,68.7s-24.2,35.3-42.4,46.2
	c-18.2,10.9-39.3,16.4-63.3,16.4c-23.7,0-44.6-5.5-62.8-16.4s-32.3-26.4-42.4-46.2c-10.1-19.9-15.1-42.8-15.1-68.7V543
	c0-25.9,5-48.7,15.1-68.4s24.2-35,42.4-46c18.2-10.9,39.1-16.4,62.8-16.4c24,0,45.1,5.5,63.3,16.4s32.3,26.3,42.4,46
	c10.1,19.7,15.1,42.5,15.1,68.4V673.2z M2316.6,799.6h-38.5c-2.5,0.1-4.7-1.5-5.4-3.8l-68.2-163.6c-0.2-0.9-1-1.6-1.9-1.6h-70.1
	c-1.3,0-2,0.7-1.9,2.2v161.4c0,3.7-1.6,5.5-4.9,5.5h-37c-3.2,0-4.9-1.8-4.9-5.5v-372c0-3.6,1.6-5.5,4.9-5.5h131
	c19.5,0,36.6,4.6,51.4,13.7s26.2,21.9,34.3,38.3c8.1,16.4,12.2,35.4,12.2,56.9c0,25.5-5.9,47.1-17.8,64.8s-28.3,29.6-49.4,35.8
	c-1.3,0.7-1.6,1.6-1,2.7L2320,793c0.3,0.9,0.5,1.8,0.5,2.7C2320.5,798.3,2319.2,799.6,2316.6,799.6L2316.6,799.6z M2643.3,799.6
	h-39.9c-2.9,0-4.9-1.5-5.8-4.4l-17.5-64c-0.2-0.9-1-1.6-1.9-1.6h-136.8c-1,0-1.8,0.7-1.9,1.6l-17.5,64c-1,2.9-2.9,4.4-5.9,4.4h-39.4
	c-3.6,0-4.9-2-3.9-6L2479.2,421c1-2.9,2.9-4.4,5.8-4.4h48.7c2.9,0,4.9,1.5,5.9,4.4l107.6,372.5l0.5,2.2
	C2647.7,798.3,2646.3,799.6,2643.3,799.6L2643.3,799.6z"/>
<linearGradient id="SVGID_1_" gradientUnits="userSpaceOnUse" x1="-562.2041" y1="1300.8099" x2="-546.6841" y2="755.1299" gradientTransform="matrix(1 0 0 -1 986.17 1320.45)">
	<stop  offset="0" style="stop-color:#1D274E"/>
	<stop  offset="0.31" style="stop-color:#2C5492"/>
	<stop  offset="0.61" style="stop-color:#4283A1"/>
	<stop  offset="0.84" style="stop-color:#52FFF7"/>
</linearGradient>
<path class="st1" d="M762.2,172.6V294c-16.7,34.1-51.1,64.8-91.4,88.2c-107.8,62-261.4,36.7-388.9,59.8
	c-57.1,10.3-119.2,32.3-155.6,64c-11.7,10.1-18.5,20-21.5,29.7V172.6H762.2z"/>
<linearGradient id="SVGID_2_" gradientUnits="userSpaceOnUse" x1="-552.6953" y1="1069.58" x2="-552.6953" y2="627.13" gradientTransform="matrix(1 0 0 -1 986.17 1320.45)">
	<stop  offset="0" style="stop-color:#1D274E"/>
	<stop  offset="0.44" style="stop-color:#2C5492"/>
	<stop  offset="0.7" style="stop-color:#4283A1"/>
	<stop  offset="1" style="stop-color:#52FFF7"/>
</linearGradient>
<path class="st2" d="M762.4,294v416c-11-35.5-65.7-63.6-119.8-76.1c-89.9-20.6-187.9-13.5-280.5-7.1c-32.3,2.2-65.1,4-97.4,2.8v-0.4
	l-1.2,0.2c-14.2-0.5-28.4-1.8-42.4-3.8c-55-8.1-106-33.7-116.2-65.8c-0.2-0.4-0.3-0.9-0.3-1.4l0.3-22.8c3-9.7,9.9-19.6,21.5-29.7
	C162.8,474.3,225,452.3,282,442c127.6-23.1,281.1,2.2,389-59.8C711.3,358.8,745.6,328.1,762.4,294z"/>
<linearGradient id="SVGID_3_" gradientUnits="userSpaceOnUse" x1="-477.0801" y1="755.16" x2="-471.9102" y2="496.55" gradientTransform="matrix(1 0 0 -1 986.17 1320.45)">
	<stop  offset="0" style="stop-color:#1D274E"/>
	<stop  offset="0.31" style="stop-color:#2C5492"/>
	<stop  offset="0.69" style="stop-color:#4283A1"/>
	<stop  offset="0.93" style="stop-color:#52FFF7"/>
</linearGradient>
<path class="st3" d="M762.2,710.1v24.6l-0.9,4.2l-0.3,0.4c-2.3,5.8-5.4,11.3-9.3,16.3c-22.1,28.9-139.2,33.9-184.6,36.1
	c-23.6,1.2-51.7,0.8-81.3,0.8c-82.5,0-176.9,2.4-221.6,43.4v-52.9l0.3-153.1c32.3,1.2,65.1-0.6,97.4-2.8
	c92.6-6.3,190.6-13.5,280.5,7.1C696.5,646.5,751.2,674.6,762.2,710.1z"/>
<linearGradient id="SVGID_4_" gradientUnits="userSpaceOnUse" x1="-611.095" y1="528.15" x2="-611.095" y2="390.1299" gradientTransform="matrix(1 0 0 -1 986.17 1320.45)">
	<stop  offset="0" style="stop-color:#2C5492"/>
	<stop  offset="0.36" style="stop-color:#4181A0"/>
	<stop  offset="0.67" style="stop-color:#4283A1"/>
	<stop  offset="0.97" style="stop-color:#52FFF7"/>
</linearGradient>
<path class="st4" d="M264.3,835.7V865c0,43.7,70.9,58.6,124.9,63c9,0.7,81.3,5,96.8,4.8V792.3C403.5,792.3,309.1,794.7,264.3,835.7z
	"/>
<circle class="st5" cx="141.5" cy="212.8" r="2.3"/>
<circle class="st5" cx="475.5" cy="215.1" r="2.3"/>
<circle class="st5" cx="292.3" cy="242.2" r="2.3"/>
<circle class="st5" cx="604.8" cy="260.6" r="2.3"/>
<circle class="st5" cx="281" cy="344.6" r="2.3"/>
<circle class="st5" cx="528.8" cy="302.9" r="2.3"/>
<circle class="st5" cx="157.6" cy="410.5" r="2.3"/>
<circle class="st5" cx="408" cy="307.4" r="2.3"/>
<circle class="st5" cx="693.5" cy="210.5" r="2.3"/>
</svg>
