<svg id="Layer_1" data-name="Layer 1" xmlns="http://www.w3.org/2000/svg" xmlns:xlink="http://www.w3.org/1999/xlink" viewBox="0 0 2742.23 1105.37"><defs><style>.cls-1{fill:#ededef;}.cls-2{fill:url(#linear-gradient);}.cls-3{fill:url(#linear-gradient-2);}.cls-4{fill:url(#linear-gradient-3);}.cls-5{fill:url(#linear-gradient-4);}.cls-6{fill:#fff;}</style><linearGradient id="linear-gradient" x1="-562.2" y1="-194.81" x2="-546.68" y2="350.87" gradientTransform="translate(986.17 214.45)" gradientUnits="userSpaceOnUse"><stop offset="0" stop-color="#1d274e"/><stop offset="0.31" stop-color="#2c5492"/><stop offset="0.61" stop-color="#4283a1"/><stop offset="0.84" stop-color="#52fff7"/></linearGradient><linearGradient id="linear-gradient-2" x1="-552.69" y1="36.42" x2="-552.69" y2="478.87" gradientTransform="translate(986.17 214.45)" gradientUnits="userSpaceOnUse"><stop offset="0" stop-color="#1d274e"/><stop offset="0.44" stop-color="#2c5492"/><stop offset="0.7" stop-color="#4283a1"/><stop offset="1" stop-color="#52fff7"/></linearGradient><linearGradient id="linear-gradient-3" x1="-477.08" y1="350.84" x2="-471.91" y2="609.45" gradientTransform="translate(986.17 214.45)" gradientUnits="userSpaceOnUse"><stop offset="0" stop-color="#1d274e"/><stop offset="0.31" stop-color="#2c5492"/><stop offset="0.69" stop-color="#4283a1"/><stop offset="0.93" stop-color="#52fff7"/></linearGradient><linearGradient id="linear-gradient-4" x1="-611.09" y1="577.86" x2="-611.09" y2="715.88" gradientTransform="translate(986.17 214.45)" gradientUnits="userSpaceOnUse"><stop offset="0" stop-color="#2c5492"/><stop offset="0.36" stop-color="#4181a0"/><stop offset="0.67" stop-color="#4283a1"/><stop offset="0.97" stop-color="#52fff7"/></linearGradient></defs><title>Aurora-Logo</title><path class="cls-1" d="M1891.91,457.65q-33.12,0-53.32,23.25t-20.21,61.54V675.38q0,37.74,20.21,60.72t53.32,23q33.12,0,53.57-23t20.45-60.72V542.44q0-38.28-20.45-61.54T1891.91,457.65ZM1711.45,295.34q-6.1-4.81-15.37-4.82-8.91,0-14.83,4.64a21.49,21.49,0,0,0-7.73,12.46,59.37,59.37,0,0,0-1.45,12.37.64.64,0,0,0,.73.73h47.11a.64.64,0,0,0,.72-.73,80.57,80.57,0,0,0-1.09-11.64A23,23,0,0,0,1711.45,295.34ZM982.22,482.27a1.52,1.52,0,0,0-2.92,0l-56.49,203a1.65,1.65,0,0,0,.24,1.92,2.24,2.24,0,0,0,1.71.82h112a2.26,2.26,0,0,0,1.71-.82,1.66,1.66,0,0,0,.24-1.92Zm412.65-225.76h-34.56a.65.65,0,0,0-.73.73v47.29a.65.65,0,0,0,.73.73h34.56q10.73,0,17.46-6.64t6.73-17.55q0-11.1-6.73-17.83T1394.87,256.51Zm258.91,315.2q15.57-17.24,15.58-45.68,0-29-15.58-46.5t-41.4-17.5h-81.32c-1.31,0-2,.73-2,2.19V586.75c0,1.47.64,2.19,2,2.19h81.32Q1638.19,588.94,1653.78,571.71ZM1538.11,358.1a24.48,24.48,0,0,0,15.37,4.82,23.13,23.13,0,0,0,23.28-17.83q1.63-6.54,1.64-18.37,0-12-1.46-18.37a23.47,23.47,0,0,0-8.46-13,24.19,24.19,0,0,0-15.18-4.82,23.15,23.15,0,0,0-23.47,17.83q-1.45,6.38-1.45,18.37t1.45,18.37A22.7,22.7,0,0,0,1538.11,358.1ZM2255.2,571.71q15.59-17.24,15.59-45.68,0-29-15.59-46.5T2213.81,462h-81.33q-2,0-1.95,2.19V586.75c0,1.47.65,2.19,1.95,2.19h81.33Q2239.61,588.94,2255.2,571.71Zm255.66-89.44a1.52,1.52,0,0,0-2.92,0l-56.49,203a1.65,1.65,0,0,0,.25,1.92,2.22,2.22,0,0,0,1.7.82h112a2.24,2.24,0,0,0,1.7-.82,1.66,1.66,0,0,0,.25-1.92ZM2633.87,0H108.36A108.37,108.37,0,0,0,0,108.36V997a108.37,108.37,0,0,0,108.36,108.37H2633.87A108.36,108.36,0,0,0,2742.23,997V108.36A108.36,108.36,0,0,0,2633.87,0ZM1845.59,282.52a1.61,1.61,0,0,1,1.82-1.82h11.09a.64.64,0,0,0,.73-.73V258.88a1.61,1.61,0,0,1,1.82-1.82H1870a1.61,1.61,0,0,1,1.82,1.82V280a.64.64,0,0,0,.73.73h20.55a1.61,1.61,0,0,1,1.82,1.82v7.09a1.61,1.61,0,0,1-1.82,1.82h-20.55a.65.65,0,0,0-.73.73v53.66q0,8.73,3.91,12.28t12.28,3.54h4.55a1.6,1.6,0,0,1,1.81,1.82v7.46a1.6,1.6,0,0,1-1.81,1.82c-1.46.12-3.7.18-6.74.18q-13.1,0-19.82-4.91t-6.73-18.19V292.16a.65.65,0,0,0-.73-.73h-11.09a1.6,1.6,0,0,1-1.82-1.82Zm-228.54-36.1a10.91,10.91,0,0,1,14.64,0,9.78,9.78,0,0,1,2.91,7.36,10.35,10.35,0,0,1-17.55,7.28,10.91,10.91,0,0,1,0-14.64Zm-20.46,154.87a1.6,1.6,0,0,1,1.81-1.81q19.47-.19,19.47-18.74V282.52a1.61,1.61,0,0,1,1.82-1.82H1629a1.61,1.61,0,0,1,1.82,1.82v98.22q0,15.47-7.64,22.56t-24.74,7.27a1.6,1.6,0,0,1-1.81-1.82Zm-78.76-96.94A33.54,33.54,0,0,1,1530.74,286q9.46-6.74,22.92-6.73,12.91,0,22.28,6.73a33.71,33.71,0,0,1,12.83,18.19q2.54,7.81,2.54,22.37,0,14.73-2.54,22.37a33.73,33.73,0,0,1-12.83,18.55q-9.36,6.74-22.46,6.73t-22.56-6.73a34.44,34.44,0,0,1-13.09-18.55q-2.55-8.37-2.55-22.37T1517.83,304.35Zm-403.15,495.2h-39.93c-2.92,0-4.87-1.45-5.84-4.37l-17.54-64a2,2,0,0,0-1.94-1.64H912.58a2,2,0,0,0-2,1.64l-17.53,64c-1,2.92-2.92,4.37-5.84,4.37H847.81q-5.35,0-3.89-6L950.57,421q1.45-4.38,5.84-4.38h48.7q4.38,0,5.84,4.38l107.63,372.54.49,2.19C1119.07,798.28,1117.6,799.55,1114.68,799.55ZM1405.9,678.11q0,37.21-14.85,65.92t-41.88,44.31q-27,15.58-62.58,15.59T1224,788.34q-27-15.58-42.12-44.31t-15.1-65.92v-256c0-3.64,1.62-5.47,4.87-5.47h37c3.24,0,4.87,1.83,4.87,5.47V679.21q0,35.56,20.21,57.43t52.84,21.89q32.63,0,52.6-21.89t20-57.43V422.09c0-3.64,1.62-5.47,4.87-5.47h37c3.25,0,4.87,1.83,4.87,5.47Zm16-371.76Q1412,316,1395.78,316h-35.47a.65.65,0,0,0-.73.73v54.2a1.61,1.61,0,0,1-1.82,1.82h-9.27a1.61,1.61,0,0,1-1.82-1.82V247.05a1.61,1.61,0,0,1,1.82-1.82h47.84q16,0,25.73,9.83t9.73,25.82Q1431.79,296.71,1421.88,306.35ZM1466,317.26v53.66a1.61,1.61,0,0,1-1.82,1.82h-9.28a1.61,1.61,0,0,1-1.82-1.82v-88.4a1.61,1.61,0,0,1,1.82-1.82h9.28a1.61,1.61,0,0,1,1.82,1.82v11.1q0,.54.27.63c.18.07.33,0,.46-.27a28.92,28.92,0,0,1,9.73-10.46,25.22,25.22,0,0,1,13.73-3.73,21.44,21.44,0,0,1,10.37,2.37,1.92,1.92,0,0,1,1.09,2.36l-2,8.91a1.56,1.56,0,0,1-2.37,1.1,18.45,18.45,0,0,0-7.09-1.28l-2.37.18a21.69,21.69,0,0,0-15.64,7Q1466,307.09,1466,317.26Zm249.15,482.29h-38.47a5.34,5.34,0,0,1-5.36-3.82l-68.18-163.57a2,2,0,0,0-2-1.64h-70.12c-1.31,0-2,.73-2,2.19V794.08c0,3.65-1.63,5.47-4.87,5.47h-37q-4.87,0-4.87-5.47v-372c0-3.64,1.62-5.47,4.87-5.47h131q29.22,0,51.37,13.68t34.34,38.29q12.16,24.62,12.17,56.9,0,38.29-17.77,64.82t-49.43,35.83c-1.3.74-1.63,1.64-1,2.74L1718.55,793a6.86,6.86,0,0,1,.48,2.74Q1719,799.56,1715.14,799.55Zm18.23-469.74a1.61,1.61,0,0,1-1.82,1.82H1672.8a.65.65,0,0,0-.73.73q.36,10,1.09,12.91a21.71,21.71,0,0,0,8.55,12.92q6.54,4.72,16.73,4.73a25.79,25.79,0,0,0,13.46-3.46,23.83,23.83,0,0,0,9.1-9.82c.73-1.09,1.57-1.33,2.54-.73l7.1,4.18a1.82,1.82,0,0,1,.73,2.55,32.73,32.73,0,0,1-13.65,13.73,42.61,42.61,0,0,1-20.91,5q-12.93-.19-21.65-6.19a33.19,33.19,0,0,1-12.55-16.73q-3.27-8.73-3.27-25.1,0-7.65.27-12.46a40,40,0,0,1,1.36-8.64,33.73,33.73,0,0,1,12.46-18.92q9.38-7.09,22.65-7.09,16.55,0,25.46,8.36t11.1,23.65a93.31,93.31,0,0,1,.73,12.73Zm25.09,19.1q-2.36-8-2.36-22.55a89.76,89.76,0,0,1,2.36-22.19,33.11,33.11,0,0,1,12.74-18.1q9.45-6.82,22.55-6.82,13.27,0,23,6.73t12.64,16.73a30.14,30.14,0,0,1,1.09,5.46v.36c0,.85-.54,1.4-1.63,1.64l-9.1,1.27h-.36c-.85,0-1.4-.54-1.64-1.64l-.54-2.72a20.5,20.5,0,0,0-8-11.74,24.89,24.89,0,0,0-15.46-4.82q-9.09,0-15.19,4.82a22.06,22.06,0,0,0-7.91,12.83,82.75,82.75,0,0,0-1.64,18.37q0,12,1.64,18.55a22.14,22.14,0,0,0,7.91,13q6.09,4.81,15.19,4.82a25.65,25.65,0,0,0,15.37-4.64,19.69,19.69,0,0,0,8.1-11.92v-.72l.18-.73c.12-1.21.84-1.7,2.18-1.46l8.91,1.46c1.21.24,1.76.91,1.64,2l-.73,3.64q-2.73,10.54-12.55,17.1t-23.1,6.54q-13.1,0-22.46-6.82A34.15,34.15,0,0,1,1758.46,348.91Zm254.23,324.28q0,38.85-15.1,68.65t-42.37,46.23q-27.29,16.41-63.31,16.41-35.55,0-62.82-16.41t-42.37-46.23q-15.1-29.8-15.1-68.65V543q0-38.83,15.1-68.38t42.37-45.95q27.27-16.41,62.82-16.41,36,0,63.31,16.41t42.37,45.95q15.09,29.53,15.1,68.38Zm303.87,126.36h-38.47a5.35,5.35,0,0,1-5.36-3.82l-68.17-163.57a2,2,0,0,0-1.95-1.64h-70.13q-2,0-1.95,2.19V794.08c0,3.65-1.63,5.47-4.87,5.47h-37q-4.87,0-4.87-5.47v-372c0-3.64,1.62-5.47,4.87-5.47h131q29.22,0,51.38,13.68t34.33,38.29q12.16,24.62,12.18,56.9,0,38.29-17.78,64.82t-49.43,35.83c-1.3.74-1.63,1.64-1,2.74L2320,793a6.85,6.85,0,0,1,.49,2.74Q2320.46,799.56,2316.56,799.55Zm326.77,0h-39.94c-2.92,0-4.87-1.45-5.84-4.37l-17.53-64a2,2,0,0,0-1.95-1.64H2441.23a2,2,0,0,0-1.95,1.64l-17.53,64c-1,2.92-2.93,4.37-5.85,4.37h-39.44c-3.58,0-4.87-2-3.9-6L2479.21,421q1.45-4.38,5.84-4.38h48.7c2.93,0,4.87,1.46,5.85,4.38l107.62,372.54.49,2.19Q2647.71,799.56,2643.33,799.55Z" transform="translate(0 0)"/><path class="cls-2" d="M762.22,172.59V294c-16.73,34.07-51.08,64.78-91.41,88.16C563,444.21,409.43,418.85,281.88,442c-57.06,10.3-119.19,32.29-155.63,64-11.65,10.1-18.52,20-21.51,29.72V172.59Z" transform="translate(0 0)"/><path class="cls-3" d="M762.37,294v416c-11-35.46-65.72-63.59-119.79-76.08-89.91-20.6-187.89-13.47-280.49-7.13-32.27,2.18-65.13,4-97.39,2.78v-.4l-1.19.2a423.69,423.69,0,0,1-42.42-3.77c-55-8.12-106-33.68-116.2-65.77a2.35,2.35,0,0,1-.3-1.39l.3-22.78c3-9.71,9.86-19.62,21.51-29.72C162.84,474.32,225,452.33,282,442,409.58,418.85,563.12,444.21,671,382.2,711.29,358.82,745.64,328.11,762.37,294Z" transform="translate(0 0)"/><path class="cls-4" d="M762.22,710.08v24.57l-.89,4.16-.3.39a68.08,68.08,0,0,1-9.26,16.25c-22.11,28.93-139.21,33.88-184.61,36.06-23.6,1.19-51.68.79-81.25.79-82.45,0-176.85,2.38-221.65,43.39v-52.9l.29-153.14c32.27,1.19,65.13-.6,97.39-2.78,92.6-6.34,190.58-13.47,280.49,7.13C696.5,646.49,751.17,674.62,762.22,710.08Z" transform="translate(0 0)"/><path class="cls-5" d="M264.25,835.68V865c0,43.65,70.89,58.62,124.9,63,9,.73,81.28,5,96.75,4.77,0,0,0-140.47,0-140.47C403.47,792.3,309.07,794.67,264.25,835.68Z" transform="translate(0 0)"/><circle class="cls-6" cx="141.47" cy="212.79" r="2.26"/><circle class="cls-6" cx="475.45" cy="215.05" r="2.26"/><circle class="cls-6" cx="292.31" cy="242.19" r="2.26"/><circle class="cls-6" cx="604.81" cy="260.6" r="2.26"/><circle class="cls-6" cx="281.01" cy="344.58" r="2.26"/><circle class="cls-6" cx="528.75" cy="302.91" r="2.26"/><circle class="cls-6" cx="157.62" cy="410.47" r="2.26"/><circle class="cls-6" cx="407.95" cy="307.43" r="2.26"/><circle class="cls-6" cx="693.48" cy="210.53" r="2.26"/></svg>