<svg id="Layer_1" data-name="Layer 1" xmlns="http://www.w3.org/2000/svg" viewBox="0 0 293.17 456.48"><defs></defs><title>eluneArtboard 1</title><path class="cls-1" d="M146.24,3.24c28.24-.81,46.84,11.87,58.93,35.38C214.6,57,224.69,74.87,239.35,89.83c13.08,13.34,29.38,19.87,47,24,1.49.34,3,.72,4.46,1,3.09.64,4.17,2.25,3.43,5.5-6,26.66-5.62,53.74-5.27,80.82.1,7.81,1.45,15.51,1.29,23.38-.37,17.88-7,33.5-16.38,48.12-13.71,21.32-31.62,38.8-51.67,54-34.32,26.07-54.7,60.9-65.27,102.06a224.52,224.52,0,0,0-5.26,24.91c-.14,1-.58,2-.74,3-.34,2.22-1.58,3.21-3.82,3.28-2.44.07-3.25-1.36-3.64-3.41-2-10.66-4.12-21.33-7.05-31.8-11.25-40.21-32.15-73.64-65.89-99.33-24.76-18.85-46.49-41-59.45-70.25C4.52,240.21,3.42,224.76,5,208.67c1.09-11.33.52-22.82.64-34.25a226.73,226.73,0,0,0-5.3-52.66c-1-4.47.31-6.31,4.85-7.37,12.57-2.92,25.15-6,36.11-13.34C57.86,90,69.34,74.44,79.11,57.47c4.58-8,8.31-16.42,13.12-24.22C104.86,12.77,123,2,146.24,3.24ZM52.57,100.59l-1,1c-5,2.44-9.33,6.1-14.41,8.52a131.43,131.43,0,0,1-27,9c-2.92.68-4.27,1.81-3.26,5.3s2.76,2.44,4.94,1.77c8.14-2.52,16.21-5.31,23.36-10,6.14-4,12.84-7.62,16.3-14.7a.89.89,0,0,0,1-1,1.51,1.51,0,0,0,.38-.09c.07,0,.08-.17.12-.26ZM188.69,25.87l-1-1c-2.24-4.3-6.41-6.44-10.25-8.78A43.62,43.62,0,0,0,153.17,9.4c-5.62.15-2.76,4.43-3.08,6.84-.42,3.16,1.68,2.32,3.67,1.7,8.39-2.64,16.48-1,24.35,2.19,3.29,1.32,6.4,3.08,9.59,4.65l1,1L189,26ZM90.46,260.22a1.49,1.49,0,0,0,.17.36c0,.06.16.05.25.06l-.49-.35a1.87,1.87,0,0,0-.83-2.21,180.7,180.7,0,0,1-16.88-51.2c-5.16,20.63,2,37.31,16.26,51.7C89.25,259.31,89.54,260.06,90.46,260.22ZM59.16,102a13.77,13.77,0,0,0,3.48-6.45c-2.07,2.2-3.62,3.69-4.17,5.88l-1.38,1.74A35.2,35.2,0,0,0,54,105.78a78.59,78.59,0,0,1-33.49,21.49c-3.22,1.06-6.48,2-9.63,3.25-4.57,1.77-1.5,5.11-1.42,7.83.05,1.83.89,2.33,2.65,1.8,20.07-6.05,35.75-17.61,45.74-36.34Zm198.11,45.73-.35-.51c0,.1,0,.24,0,.29a1.3,1.3,0,0,0,.38.17c4.45,8.9,11.24,15.08,20.92,17.77,1.45.4,3.82,3,4.36-.07.46-2.58,2.35-6.63-1.28-8.23C273.45,153.61,265.3,150.78,257.27,147.68ZM107.89,23.84c1.65.07,2.8-1.09,4.17-1.7,9.39-4.23,18.85-7.81,29.31-3.8,2.1.8,3.6.06,3.08-2.26s2.36-6.64-2.73-6.65c-13.25,0-24.89,4.15-33.93,14.31-.35.14-1,.16-.33.74ZM37.24,147.69C31,150.13,24.75,152.62,18.47,155c-7.72,2.89-7.74,2.84-6.35,11.64,11.57-2.09,19.78-8.6,25.05-19a1.66,1.66,0,0,0,.39-.15c0-.05,0-.19,0-.29Zm205.7-46.07a1.68,1.68,0,0,0-.16-.39c0-.06-.18,0-.27-.07l.5.39c.1,2.17,2,3,3.25,4.29,10.07,10.51,22.9,16,36.44,20.38,2.3.74,4,1.6,4.92-1.81.84-3,.05-4.46-2.86-5.08A114.54,114.54,0,0,1,242.94,101.62ZM205.17,259.33c14.91-14,23.89-37.51,16.36-52.87L219,219.24c-2.77,13.9-8.34,26.78-14.24,39.55-.43.31-1.48.38-1,1.09S204.86,260,205.17,259.33ZM230.68,93.42l-.16-.19.2.15c.73,4.39,3.78,7.55,6,11.16,10.31,17.15,24.56,29.4,44.07,35,1.29.37,2.71,2,4.05.06,2.68-3.83,1.15-8.55-3.39-9.89A118.06,118.06,0,0,1,262,122.12C248.82,115.51,239.28,105,230.68,93.42ZM217.59,81.94c-.24-.46,0-1.57-.89-1.15-.58.27-.16,1.15.33,1.65,10.84,34.18,28,62.39,66.46,70.56,1.33-4,.39-6.49-4.41-7.92-18.23-5.41-32.69-16-43.65-31.72C228.47,103.4,223.34,92.52,217.59,81.94ZM76.94,82c-2,3.91-4.06,7.8-6,11.73-12.11,24-28.3,43.75-55.48,51.41-4.94,1.39-5.68,3.94-4.32,8.14,30.29-5.81,59.52-37,66.39-70.79.5-.51.91-1.43.32-1.69C76.93,80.37,77.18,81.49,76.94,82Zm-5.07,80.9C65.35,169,60.42,176.34,56,184c-12.46,21.57-14.08,43.62-2.44,66.13,9.84,19,24.74,33.54,41.53,46.83,2-4.21,2.19-7.17-1.91-10.27-8-6.06-15-13.35-21.51-21.05C50.78,241,47.31,213.77,62.36,187.91c4.51-7.75,9.83-15,10-24.46,1.94-1,3.92-2,5.8-3.17a1.54,1.54,0,0,0,.33-2.57c-.89-1-1.74-.85-2.55,0C74.47,159.37,72.55,160.62,71.87,162.86Zm17.57-37.7c2.53-.83,4.12-2.94,6.15-4.46,1.84-1.38,3.63-2.3,6-.72,12.36,8.17,24.78,16.24,37.2,24.32a5.47,5.47,0,0,1,2.66,5.1c0,17.9,0,35.81,0,53.72,0,2.83-.53,5.35-4.3,5.8a2.7,2.7,0,0,0-2.14,4.17c3,5.34,13,7.72,18.06,4.37,1.81-1.21,3.33-2.87,5.16-4.05,3.39-2.19,1.28-4.12-.72-4.42-4.41-.65-4.47-3.57-4.48-6.7,0-17,.12-34.1-.06-51.16,0-3.92,1.42-6.28,4.63-8.3,9.81-6.16,19.75-12.17,29.12-18.94,6-4.33,11-6.4,16.42.26a1.1,1.1,0,0,0,1.75.24c.26-1.49-.83-2.49-1.44-3.64a152.09,152.09,0,0,1-13.62-37.22c-1.47-6.45-1.9-13.07-4.1-19.4-4.47-12.88-22.45-21.68-35.3-11.65-1.49,1.16-3.42,1.75-4.63.31-4.7-5.57-11-4.89-17-4.41-8.44.67-14.54,5.74-18.38,12.8-2.37,4.37-3.53,9.62-4.25,14.62a135.74,135.74,0,0,1-15.37,45.51c-.63,1.16-1.64,2.23-1.41,3.74-.55,0-.8.21-.37.74Zm46,59.13c0-2.72,0-5.45,0-8.18,0-3.82-4.72-10.82-8.07-12.42-1.51-.72-2.15.12-3.08.86-12.39,9.93-25.83,9.63-37.17,2-1.65-1.12-3.11-3.1-5.84-1.3s-4.22,3.21-4.27,6.73c-.21,14.17.43,28.28,3.27,42.16,5.42,26.4,15.77,50.21,36.78,68.35,18,15.54,34.13,16.15,53.68,4.86,14.51-8.37,23.38-22,31-36.44,3.52-6.63,4.85-14.14,7.69-20.92,8.08-19.34,8-39.47,7.75-59.72,0-4-5.3-6-8.48-3.57-9.87,7.41-26.56,7.13-35.87-.49-1.48-1.21-4.27-3.17-4.86-2.71-3.38,2.61-8.54,5-8.7,9.21-.47,12.57-2.67,25.68,6.38,36.73,2.8,3.42,1.48,6.14-2,8.44-4.64,3.09-10,5.21-13.57,9.79-1,1.27-2,.41-3.12.07-6.39-1.86-10.74-6.91-16.25-10.1-3.95-2.3-4.22-4.77-1.93-8.33C133.75,201.68,137.45,193.72,135.46,184.29ZM104,278.91c-.17.83-.33,1.41-.4,2-1,9.1-1.48,18.32-4.17,27.12-1.07,3.5-.34,5.66,2.16,8a252.17,252.17,0,0,1,23.62,26.14c9.42,11.86,17.15,24.69,22,40a172,172,0,0,1,9.2-20.87c7.67-14.44,19.46-25.75,29-38.77a19.23,19.23,0,0,1,6-5.37c2.63-1.55,4.77-3.26,3.75-7.67-2.28-9.85-4.07-19.89-3.38-30.13,0-.72-.19-1.32-1.07-1.39C168.3,305.57,133.4,310.46,104,278.91ZM151,427.31c1-3.13,1.92-6.26,2.85-9.4,9.06-30.37,23.87-57.35,46.43-79.92,9.92-9.92,21.58-17.72,31.93-27.11,17.25-15.66,33.21-32.33,43.63-53.51,10.73-21.79,11.77-43.88,2.08-66.41-7.73-18-19.84-32.91-32.48-47.42-18.79-21.55-32.68-45.49-38-73.9A81.6,81.6,0,0,0,203.06,53c-7.41-17.7-24.94-30.51-41.34-30.17a18.32,18.32,0,0,0-10.16,2.88c-1.86,1.26-1.84,3.25-1.37,5.08s2.11,1.13,3.38.89c23.85-4.5,42.27,9.39,46.61,33.23,5.21,28.62,15.49,55.06,36,76.92,13.38,14.25,25.53,29.65,33.56,47.88,6.21,14.08,8.68,28.63,6.43,43.79-3.23,21.74-15.13,39-29.31,55-12,13.61-27.18,23.75-40.23,36.21-21.51,20.54-39.75,43.46-50.64,71.5C152.16,406.08,149.05,416.23,151,427.31Zm-7.08-.05c1-7-.29-13.65-2.19-20.18-10.93-37.55-34.63-66.38-63.57-91.26C62.52,302.33,46.86,289,35,271.85c-16.74-24.29-22.75-50.23-11.86-78.69C30,175.21,40.86,159.61,54,146c18.49-19.22,30.09-41.86,36.93-67.24,2.11-7.84,2.9-16.06,5.25-23.82,5.51-18.16,25.07-29.08,43.65-25.09,1.38.3,3.71,2.72,4.56-.42.68-2.53-1.22-4-3.5-4.89a23.67,23.67,0,0,0-13-1.4c-22.27,4-36.69,21.18-40.36,43.34-4.44,26.78-16.12,50-33.16,70.72-10.06,12.23-20.59,24.08-29.21,37.43C5.5,205,4.66,235.68,23.72,266.72,37,288.4,54.86,306,74.79,321.3c27.35,21,47.32,47.19,59.85,79.25C138.07,409.34,140.6,418.41,144,427.26Zm-.6-29.76a56.46,56.46,0,0,0-4.65-21.22c-10.94-26.37-30.23-46.41-50.93-65-14.61-13.11-29.66-25.64-41-41.86C28,242.56,24.07,214.37,39.14,184.35c7.27-14.46,17.07-27.06,27.64-39.1a138.94,138.94,0,0,0,34-74c3.31-23.63,25-33.46,40.56-27.56,2.21.84,3,.43,3.25-2,.51-5.41-1.31-7.68-7.36-8.65-18.12-2.89-35.8,10.09-38.59,28.31a154.22,154.22,0,0,1-5.41,23.26c-6.69,21.09-15.43,41-31,57.4a198.32,198.32,0,0,0-27.86,36.49c-16.67,28.68-17.4,57.28.36,85.86,10.49,16.87,24.09,30.91,39.56,43.08a240.32,240.32,0,0,1,49.29,52.83A183.51,183.51,0,0,1,143.36,397.5Zm8.16-1.07c.69-1.52,1.4-3,2.06-4.57,13.71-31.79,34.92-57.87,61.58-79.56,16.07-13.07,31.31-26.85,42.86-44.18,15-22.53,20-46.56,10-72.62-7.06-18.5-18.66-34.12-32.13-48.13-22.47-23.38-34-51.8-39.82-82.85-2.79-14.78-10.48-24.33-24.62-28.83a27.77,27.77,0,0,0-19,.29c-3.75,1.45-2.79,4.51-2.32,6.89.57,2.85,2.77.78,4.13.43C173,38.49,191,51,193.75,71c3.93,28.85,15.74,53.84,35.13,75.56,11.59,13,21.93,27,28.94,43.1,5.68,13.05,8.12,26.64,6.1,40.81-3.13,22-14.83,39.52-29.55,55.34-16.14,17.33-36,30.79-51.28,49.05-9.32,11.11-18.55,22.23-24.78,35.45C154.44,378.54,151.5,387.08,151.52,396.43ZM249.22,219c-.85-24.5-14-43.54-30.31-61.06-.92-1-1.86-1.59-2.92-.22-1.25,1.63-.13,2.48,1.17,3.14,2.92,1.5,6.41,3,6,6.78-.59,5.88,2.54,9.93,5.42,14.34,10,15.45,15.62,31.91,11.37,50.65-3.85,16.92-13.72,30.15-25.52,42.16-4.64,4.72-9.79,8.95-14.8,13.3a5.25,5.25,0,0,0-.59,7.76c2,2.38,3.3-1.07,4.56-2.08a168,168,0,0,0,25-24.71C240.38,254.66,248.66,238.76,249.22,219ZM92.8,307.24c2.46-3.63,1.74-6-1.45-8.45A175.74,175.74,0,0,1,59,266.24c-21.09-27.62-22.55-58.57-4-87.92A134.73,134.73,0,0,1,73.35,155.1c2.21-2.23,1.57-3.94-.23-5.57-2.22-2-2.89.64-3.8,1.7a205.41,205.41,0,0,0-20.5,27.36c-12.44,20.45-17.22,42-8.93,65.27C46,261.1,57.18,275,70,287.66A189.74,189.74,0,0,0,92.8,307.24Zm108.94.18c17.15-13.52,32.85-27.77,44.33-46.09,16.82-26.83,16.6-53.83.64-80.93-6.07-10.31-13.43-19.66-21.13-28.75-1-1.17-1.77-4.07-4.16-2.16-2.18,1.74-2.2,3.79.12,5.93,5.77,5.34,10.37,11.69,15,18,20.47,28.07,21.58,57.14,3.31,86.54C230.18,275.54,217,287.81,203,299.3,200,301.8,199.29,303.82,201.74,307.42ZM159,157.51c0,1.77-.05,3,0,4.15.05,1-.39,2.24.64,2.79,1.46.78,2-.82,2.82-1.54s1.16-1.67,1.85-2.4c4.84-5,10.55-10.17,16.94-11.34,8.34-1.52,17.65-2.26,25.39,3.89,1,.82,2.55,2.27,4.5.77,5.64-4.35,5.54-9.2-.39-12.92-.84-.53-1.51-1.34-2.35-1.86-6.78-4.17-13.66-6.91-22.07-5-9.41,2.13-16.51,7.36-23.17,13.9C160.15,150.92,158.09,153.74,159,157.51Zm-88.46,28.2c-8.08,12.2-12.73,24.85-11.5,39.1.86,9.8,4.52,18.72,9.8,27a121.82,121.82,0,0,0,25.52,28.31c.71.59,1.37,1.81,2.54,1.13,1-.6.55-1.83.67-2.8a9.28,9.28,0,0,0-3.46-8.94,91,91,0,0,1-14.22-15.31c-11.75-15.93-17.31-33.11-9.78-52.52A23,23,0,0,0,70.56,185.71Zm65.06-20c-.75-6.39,1.87-13-4.33-17.64-3.48-2.61-6.53-5.89-10.21-8.15-7.1-4.34-14.68-7-23.36-5.71-6.74,1-11.32,5.79-17,8.64-3.17,1.59-3.08,4.07-.59,6.52a9.31,9.31,0,0,1,1.39,2.13c1.64,3,3.07,3.95,6.61,1.56a29.8,29.8,0,0,1,20.27-4.78C120.3,149.45,126.32,159.15,135.62,165.67ZM224,185.48c-1.5,5.44-2.11,9.8,0,14.48a46.28,46.28,0,0,1,2.87,28.91c-3.51,16.69-13.53,29.5-26,40.43-4.37,3.84-4.47,7.55-3.22,12.87,15.1-12.44,27.9-25.91,34.68-44C239.42,219.48,234.64,202.42,224,185.48ZM104.55,166.06c4.17.38,7.91-1.05,11.5-3.13,3.09-1.79,4-3.33.25-5.7a23.83,23.83,0,0,0-25.43.64c-2.55,1.81-2.13,2.82.2,4.25C95.21,164.64,99.51,166.44,104.55,166.06Zm84.59,0a22,22,0,0,0,8.73-1c2.92-1.07,5.51-2.87,5.86-5.77s-3.44-3.19-5.21-3.83c-7.39-2.67-14.83-3-21.45,2.56-1.71,1.43-1.87,2.42-.25,4A14.32,14.32,0,0,0,189.14,166Zm93.38,20.17c1.27-15.23.6-16.36-10.45-18.39Zm-270.89.61c3.89-6.93,7-12.5,10.17-18.08C18,170,12.51,168.26,11.72,174,11.21,177.67,11.63,181.52,11.63,186.8ZM105.1,130c-4.83-6.07-7-5.88-11.29,1.25C97.65,129.62,101.35,130.58,105.1,130Zm84.49.2c2,0,3.21-.07,4.39,0a23.15,23.15,0,0,1,4,.58c.73.19,1.4.3,1.81-.29.56-.82.1-1.49-.54-2.19C195.67,124.46,194.56,124.58,189.59,130.23Z"/><path class="cls-1" d="M174.17,247.19c-4.56-.15-8.67-2.17-13-2.63-.84-.09-1.83-.79-2.45-.52-10.9,4.82-22.48-2.5-33.51,2.09-5.58,2.32-11.36,0-16.88-1.69-1.83-.56-2.9-1.79-2.44-3.84.56-2.44,2.65-2.21,4.1-1.68,9.39,3.49,18,2.13,26-3.72,2.46-1.78,5-.39,7.15,1,2.77,1.75,5.28,1.91,8,.09,3.52-2.33,6.74-2.07,10.27.55,6.49,4.83,13.86,4.94,21.37,2.74,2.08-.6,4.68-2.11,5.7.78,1.21,3.44-1.88,4.18-4.4,4.78C180.79,245.86,177.47,246.5,174.17,247.19Z"/><path class="cls-1" d="M147.54,258.12c-6.28-.42-12.47-1.39-18.24-4.1-1.78-.83-4.36-1.66-3.51-4.23,1-2.9,3.52-2,5.63-1.27,5,1.76,9.9,3.54,15.29,3.56a50.32,50.32,0,0,0,17.38-3.46c2.13-.78,4.6-1.8,5.8.87,1.35,3-1.6,3.72-3.51,4.5A57,57,0,0,1,147.54,258.12Z"/></svg>