<svg id="Layer_1" data-name="Layer 1" xmlns="http://www.w3.org/2000/svg" xmlns:xlink="http://www.w3.org/1999/xlink" viewBox="0 0 341.61 92.99"><defs><style>.cls-1{fill:url(#linear-gradient);}.cls-2{fill:url(#linear-gradient-2);}.cls-3{fill:url(#linear-gradient-3);}.cls-4{fill:url(#linear-gradient-4);}.cls-5{fill:#fff;}</style><linearGradient id="linear-gradient" x1="183.91" y1="31.94" x2="183.91" y2="89.78" gradientUnits="userSpaceOnUse"><stop offset="0" stop-color="#70c38e"/><stop offset="0.13" stop-color="#61bf9b"/><stop offset="0.38" stop-color="#39b6bc"/><stop offset="0.52" stop-color="#22b1cf"/><stop offset="0.66" stop-color="#2f8bbd"/><stop offset="0.8" stop-color="#396daf"/><stop offset="0.92" stop-color="#3f5ba7"/><stop offset="1" stop-color="#4154a4"/></linearGradient><linearGradient id="linear-gradient-2" x1="183.87" y1="91.83" x2="217.49" y2="33.62" gradientUnits="userSpaceOnUse"><stop offset="0" stop-color="#5167af"/><stop offset="0.11" stop-color="#4e6bb2"/><stop offset="0.22" stop-color="#4677ba"/><stop offset="0.33" stop-color="#398bc8"/><stop offset="0.43" stop-color="#29a3d8"/><stop offset="0.63" stop-color="#30b0c1"/><stop offset="0.84" stop-color="#34b8b1"/><stop offset="1" stop-color="#36bbac"/></linearGradient><linearGradient id="linear-gradient-3" x1="167.12" y1="38.17" x2="209.54" y2="46.95" gradientUnits="userSpaceOnUse"><stop offset="0" stop-color="#2e469a"/><stop offset="0.18" stop-color="#2c4d9f"/><stop offset="0.42" stop-color="#275fab"/><stop offset="0.57" stop-color="#236db5"/><stop offset="0.64" stop-color="#2a88b2"/><stop offset="0.71" stop-color="#2f9eaf"/><stop offset="0.79" stop-color="#33aead"/><stop offset="0.88" stop-color="#35b8ac"/><stop offset="1" stop-color="#36bbac"/></linearGradient><linearGradient id="linear-gradient-4" x1="190.47" y1="26.68" x2="216" y2="52.21" gradientUnits="userSpaceOnUse"><stop offset="0" stop-color="#2c4298"/><stop offset="1" stop-color="#4154a4"/></linearGradient></defs><title>new_logoArtboard 2</title><path class="cls-1" d="M204,86a14.47,14.47,0,0,1-6.31,2.92,33.61,33.61,0,0,1-23.79-3.26,33.56,33.56,0,0,1,1.68-53.69,39.83,39.83,0,0,0-6.67,7.31,13.62,13.62,0,0,0-2.51,9.49c.58,3.68,3.12,6.73,5.9,9.21,7.94,7.09,18.21,10.89,27.74,15.63,2.74,1.35,5.71,3.16,6.34,6.15A6.78,6.78,0,0,1,204,86Z"/><path class="cls-2" d="M228.58,59.4a33.61,33.61,0,0,1-31.2,33.5c-.82.06-1.63.09-2.45.09a33.53,33.53,0,0,1-20.66-7.07l-.35-.29a34.69,34.69,0,0,0,23.77,3.26A14.48,14.48,0,0,0,204,86a6.78,6.78,0,0,0,2.38-6.24c-.62-3-3.6-4.8-6.34-6.15-9.48-4.72-19.68-8.49-27.6-15.51l0-.36a9.57,9.57,0,0,1,6.13-4.37,28.81,28.81,0,0,1,7.71-.57c1.68,0,3.37.07,5.06.09,2.41,0,4.83.21,7.25.27,4,.1,8,.58,12.06.11s8.11-2.89,9.44-6.72c1.19-3.4,0-7.28-2.25-10.11s-5.33-4.83-8.41-6.7l-3.28-2A33.55,33.55,0,0,1,228.58,59.4Z"/><path class="cls-3" d="M187.82,30c-.18.51,0,.71,0,.71s0,.16.12.38a4.83,4.83,0,0,0,.41.79c.67,1,3,2,3,2,1.64.69,3.23,1.52,4.86,2.24a28.12,28.12,0,0,1,4.62,1.29,34.86,34.86,0,0,1,3.46,1.56c3,1.47,3.59,2,4,2.58a5.42,5.42,0,0,1,.92,2.2c.47,2.2.21,5.36-1.89,6.6a23.07,23.07,0,0,1-6.46,2.49c-.76.18-1.77.18-2.56.33-2.3-.15-4.61-.2-6.91-.25-1.7,0-3.38,0-5.07-.09a28.73,28.73,0,0,0-7.7.57,9.55,9.55,0,0,0-6.13,4.37l0,.36-.14-.12c-2.78-2.47-5.32-5.53-5.9-9.21A13.53,13.53,0,0,1,169,39.29,39.57,39.57,0,0,1,175.65,32s0,0,0,0l1.13-.76a33.81,33.81,0,0,1,29.35-3.43l3.31,2c.25.16.51.31.76.48l-.47-.28a24.07,24.07,0,0,0-3.56-1.71,24.67,24.67,0,0,0-6.48-1.2c-6.07-.55-8.36.16-9.17.45C190.55,27.48,188.38,28.46,187.82,30Z"/><path class="cls-4" d="M221.19,43.48a5.15,5.15,0,0,1,0,.55v0c0,.13,0,.26,0,.39a1.79,1.79,0,0,1,0,.23c0,.12,0,.25-.07.36a1.44,1.44,0,0,1-.05.24c0,.16-.06.31-.1.45-.09.32-.19.61-.28.85s-.16.39-.23.54a4.81,4.81,0,0,1-.22.45l-.08.13c-.11.2-.23.39-.35.58h0c-.13.2-.28.4-.43.59l-.49.54c-.17.18-.34.35-.52.51l0,0c-.17.16-.34.3-.52.45a1.53,1.53,0,0,1-.16.11A12.55,12.55,0,0,1,215.2,52c-.29.13-.57.26-.86.37l-.35.12c-.13.06-.28.1-.42.15l-.71.21-.6.15a9.19,9.19,0,0,1-.94.19,7.14,7.14,0,0,1-.71.1l-.32,0-.27,0-.12,0-.37,0q-.47,0-1,.06h-1.11c-2.74,0-5.52-.08-8.27-.27l-.95-.06c.79-.15,2.41-.46,3.17-.63a16,16,0,0,0,6.22-2.71c1.61-1.22,2.19-4.06,1.45-6.34s-2.4-3.11-4.63-4.4c-.84-.49-1.78-1-7.85-2.88-.08.13-6.48-2-8.33-4.33a2.66,2.66,0,0,1-.53-1.18,2.36,2.36,0,0,1,.19-1.2c.69-1.46,3.13-2.3,3.13-2.3.81-.29,3.07-1.21,9.14-.66A20.85,20.85,0,0,1,206.79,28a24.07,24.07,0,0,1,3.56,1.71l.47.28a.27.27,0,0,1,.12.06A39.31,39.31,0,0,1,216,33.59c0,.06.11.1.16.15.31.3.63.59.94.9l.46.47.09.08c.28.32.56.65.82,1a13.78,13.78,0,0,1,1.24,1.87c.12.22.23.44.34.67a0,0,0,0,1,0,0l.23.52.15.37a11.19,11.19,0,0,1,.74,3.35h0C221.19,43.15,221.19,43.31,221.19,43.48Z"/><path class="cls-5" d="M187.93,37.84a12.1,12.1,0,0,0-3.1,2.17,11.86,11.86,0,0,0-2.43,3.37,16.76,16.76,0,0,0-5.68-5.68A14.47,14.47,0,0,0,180,35.14a14.27,14.27,0,0,0,2.22-3,13.65,13.65,0,0,0,2.43,3.27A13.89,13.89,0,0,0,187.93,37.84Z"/><path class="cls-5" d="M55.53,90.58a1.22,1.22,0,0,1-.56.09,1.39,1.39,0,0,1-1.29-.83l-8.4-19.48H11.66L3.25,89.84a1.32,1.32,0,0,1-1.75.74,1.42,1.42,0,0,1-.74-1.84L27.27,27.41a1.3,1.3,0,0,1,1.2-.83,1.46,1.46,0,0,1,1.29.83l17.73,41v.09l8.78,20.23A1.42,1.42,0,0,1,55.53,90.58Zm-11.45-23L28.47,31.47,12.86,67.59Z"/><path class="cls-5" d="M103,27.87v42A21.5,21.5,0,0,1,96.81,85a21,21,0,0,1-29.74,0A21.41,21.41,0,0,1,61,69.89v-42a1.36,1.36,0,0,1,1.38-1.39,1.43,1.43,0,0,1,1.39,1.39v42A18.63,18.63,0,0,0,69.1,83a18.35,18.35,0,0,0,12.84,5.36A18.54,18.54,0,0,0,94.87,83a19,19,0,0,0,5.36-13.12v-42a1.36,1.36,0,0,1,1.39-1.39A1.43,1.43,0,0,1,103,27.87Z"/><path class="cls-5" d="M151.4,90.4a1.07,1.07,0,0,1-.74.27,1.34,1.34,0,0,1-1.2-.64L131.17,63.15h-18V88.83a1.39,1.39,0,0,1-2.77,0V27.32a1.36,1.36,0,0,1,1.38-1.39H133.3A18.61,18.61,0,0,1,146.41,57.7a18.32,18.32,0,0,1-11.91,5.45l17.27,25.4A1.27,1.27,0,0,1,151.4,90.4Zm-38.24-30H133.3a16,16,0,0,0,11.17-4.62,15.93,15.93,0,0,0,0-22.44A16,16,0,0,0,133.3,28.7H113.16Z"/><path class="cls-5" d="M279.05,90.4a1.07,1.07,0,0,1-.74.27,1.34,1.34,0,0,1-1.2-.64L258.82,63.15h-18V88.83a1.39,1.39,0,0,1-2.77,0V27.32a1.35,1.35,0,0,1,1.38-1.39h21.52A18.61,18.61,0,0,1,274.06,57.7a18.32,18.32,0,0,1-11.92,5.45l17.28,25.4A1.27,1.27,0,0,1,279.05,90.4Zm-38.24-30h20.13a16,16,0,0,0,11.18-4.62,15.93,15.93,0,0,0,0-22.44,16,16,0,0,0-11.18-4.62H240.81Z"/><path class="cls-5" d="M340.1,90.58a1.22,1.22,0,0,1-.56.09,1.39,1.39,0,0,1-1.29-.83l-8.4-19.48H296.23l-8.41,19.48a1.32,1.32,0,0,1-1.75.74,1.42,1.42,0,0,1-.74-1.84l26.51-61.33a1.3,1.3,0,0,1,1.2-.83,1.46,1.46,0,0,1,1.29.83l17.73,41v.09l8.78,20.23A1.42,1.42,0,0,1,340.1,90.58Zm-11.46-23L313,31.47,297.43,67.59Z"/><path class="cls-5" d="M135.6,2.09a4.69,4.69,0,0,1-3.31,8h-5.06v6.44a.33.33,0,0,1-.34.35.35.35,0,0,1-.35-.35V1.07a.35.35,0,0,1,.35-.35h5.4A4.69,4.69,0,0,1,135.6,2.09Zm.67,3.31a3.85,3.85,0,0,0-1.18-2.8,3.85,3.85,0,0,0-2.8-1.18h-5.06v8h5.06a3.89,3.89,0,0,0,2.8-1.18A3.85,3.85,0,0,0,136.27,5.4Z"/><path class="cls-5" d="M149.11,16.81a.27.27,0,0,1-.18.07.34.34,0,0,1-.3-.16L144,10h-4.52v6.44a.34.34,0,0,1-.35.35.35.35,0,0,1-.35-.35V1a.35.35,0,0,1,.35-.35h5.4a4.67,4.67,0,0,1,3.29,8,4.6,4.6,0,0,1-3,1.37l4.34,6.37A.32.32,0,0,1,149.11,16.81Zm-9.59-7.54h5a4.05,4.05,0,0,0,2.81-1.15,4,4,0,0,0,0-5.64,4.06,4.06,0,0,0-2.81-1.16h-5Z"/><path class="cls-5" d="M166.13,8.83a8.3,8.3,0,0,1-2.3,5.78,7.73,7.73,0,0,1-2.5,1.73,7.25,7.25,0,0,1-3.06.65,7.41,7.41,0,0,1-3.06-.65,7.87,7.87,0,0,1-2.48-1.73,8.43,8.43,0,0,1,0-11.57,8.07,8.07,0,0,1,2.48-1.74,7.41,7.41,0,0,1,3.06-.65,7.25,7.25,0,0,1,3.06.65A7.92,7.92,0,0,1,163.83,3,8.27,8.27,0,0,1,166.13,8.83Zm-.72,0a7.52,7.52,0,0,0-2.09-5.28,6.92,6.92,0,0,0-10.08,0,7.57,7.57,0,0,0-2.09,5.28,7.56,7.56,0,0,0,2.09,5.27,6.94,6.94,0,0,0,10.08,0A7.52,7.52,0,0,0,165.41,8.83Z"/><path class="cls-5" d="M173.24,17a5.21,5.21,0,0,1-3.73-1.57A5.27,5.27,0,0,1,168,11.66a.35.35,0,0,1,.35-.35.37.37,0,0,1,.35.35A4.57,4.57,0,0,0,170,14.93a4.51,4.51,0,0,0,3.22,1.37,4.56,4.56,0,0,0,3.25-1.37,4.66,4.66,0,0,0,1.34-3.27V1.46h-4.59a.36.36,0,0,1-.35-.34.36.36,0,0,1,.35-.35h4.94a.36.36,0,0,1,.35.35V11.66A5.3,5.3,0,0,1,177,15.42,5.14,5.14,0,0,1,173.24,17Z"/><path class="cls-5" d="M189.81,16.53a.35.35,0,0,1-.34.35h-8.74a.34.34,0,0,1-.35-.35V1.09a.32.32,0,0,1,.35-.34h8.74a.33.33,0,0,1,.34.34.35.35,0,0,1-.34.35h-8.39V7.51h7.76a.36.36,0,0,1,.35.35.34.34,0,0,1-.35.35h-7.76v8h8.39A.35.35,0,0,1,189.81,16.53Z"/><path class="cls-5" d="M198.83,17a7.12,7.12,0,0,1-3-.65,7.5,7.5,0,0,1-2.48-1.76,8.52,8.52,0,0,1,0-11.54,7.74,7.74,0,0,1,2.48-1.74,7.12,7.12,0,0,1,3-.65A7.45,7.45,0,0,1,204.23,3a.34.34,0,0,1,0,.49.36.36,0,0,1-.51,0,6.71,6.71,0,0,0-9.85,0,7.75,7.75,0,0,0,0,10.59,6.7,6.7,0,0,0,7.72,1.58,7.31,7.31,0,0,0,2.25-1.65.36.36,0,0,1,.51,0,.38.38,0,0,1,0,.51,7.87,7.87,0,0,1-2.48,1.78A7.33,7.33,0,0,1,198.83,17Z"/><path class="cls-5" d="M215.06,1.07a.36.36,0,0,1-.35.35h-4V16.53a.34.34,0,0,1-.35.35.35.35,0,0,1-.35-.35V1.42h-4a.34.34,0,0,1-.35-.35A.34.34,0,0,1,206,.72h8.74A.36.36,0,0,1,215.06,1.07Z"/></svg>