<svg id="Layer_1" data-name="Layer 1" xmlns="http://www.w3.org/2000/svg" viewBox="0 0 272.07 489.94"><defs><style>.cls-1{fill:#fff;}.cls-2{fill:none;stroke:#fff;stroke-linecap:round;stroke-linejoin:round;stroke-width:2px;}</style></defs><title>Artboard 1</title><path class="cls-1" d="M77.35,309.74c-10.26,9.56-19.63,13.4-30.36,6.4-8.81-5.75-12.6-14.83-12.86-24.78-.24-9.1,1.44-18.24,2-27.38.11-1.84-.33-4.58-1.56-5.52C13.45,242.53,4.77,219.92,2.92,195c-1.86-25.16-1-50.53-1.47-75.8C1.27,110.45.46,101.74,0,93A6.52,6.52,0,0,1,1.33,88.8c10,39.82,18.81,79.91,41.76,117.25V180l12.59,15.48,1.4-.7q-6.93-31.32-13.85-62.64l1.83-.63L64.31,167C62.43,146.74,60.73,128.38,59,110l2.7-.76,11.08,16.41c0-5.41-.16-8.89,0-12.35a55.65,55.65,0,0,1,1.24-6.83c2.13,1.17,4.32,2.24,6.35,3.54a36.8,36.8,0,0,1,4,3.58V88.4c7.24,8,13.15,14.46,19.94,21.92C106.28,59,136.69,27.28,173.88,0l1.87,1L156.32,78.42l18.09-13.89V99.38l2,1.32,8.15-12,2.34,1.7c.15,3.37.3,6.74.51,11.31L198.06,90v33.58l1.51.37,10-14.75,2.7.55c-1.66,18.43-3.32,36.87-5.13,57.06,6.87-12.68,13.08-24.11,19.28-35.54l1.78.51-13.89,62.84,1.19.89,12.74-15.35v24.42c23.6-35.06,32.26-75.6,43.18-115.71a13.74,13.74,0,0,1,.69,3.09q-.3,36.56-.71,73.09c-.26,21.26-2,42.28-10.14,62.27a74.55,74.55,0,0,1-23,30.49c-1.53,1.23-2.25,4.27-2.25,6.47,0,11.68,2.4,23.81,0,34.95C231.41,321,211.29,326,197.35,312.1a13.93,13.93,0,0,0-2.58-1.12c.53,4.35.15,8.26,1.54,11.38,9.53,21.33,16.68,43.31,17.37,66.8.66,22.12-3,43.22-19.56,59.83-12.58,12.59-27.6,14-42.54,4.29-1-.65-2.07-1.21-4.83-2.81-1,5.47-2.73,10.14-2.62,14.76.22,8.91-3.3,16.19-8.16,24.71-4.9-8.93-8.85-16.53-7.84-26.22.38-3.63-2.16-7.59-3.62-11.31-.11-.27-2.57-.14-3.44.48-18.5,13.21-37.56,6-49.61-11.29-11.19-16-14-34.42-13.09-53.51C59.46,364.76,66.42,343,76,321.83,77.3,318.92,76.8,315.18,77.35,309.74Zm123.84-42.51c.71-3.09,1.07-4.8,1.48-6.5,2-8.09,5-15.76,12.52-20.14,13.94-8.12,23.41-20.06,30.39-34.2,11.22-22.71,16.25-47.15,19.63-72,.27-2,.65-3.94.8-5.93.13-1.8,0-3.62,0-4.64-7.74,20.84-14.85,42.38-23.72,63.17C234.19,206,222.63,223,204.21,234.14c-9.36,5.64-15.82,3-18.45-7.45-1.08-4.31-2.37-8.57-3.67-12.83-3.35-11-3.37-11-14.44-8.33a8.14,8.14,0,0,0-2.65.7c-2.21,1.57-5,2.9-6.29,5.09-6.9,11.91-13.39,24.07-20.05,36.12-1.73,3.15-3.57,3.07-5.32,0-5.1-8.91-10.93-17.5-15-26.84-4-9-8.35-16.29-19.29-16.67-.45,0-1-.48-1.31-.34-1.68.67-4.37,1.09-4.79,2.28-2.69,7.65-5,15.44-7.2,23.26-1.74,6.26-9.16,10.48-14.37,6.72-8.73-6.29-17.89-12.72-24.61-20.94-18.5-22.64-27.41-50.06-35.51-77.67-1.4-4.78-2.87-9.54-4.32-14.3A7.81,7.81,0,0,0,6,128.2c5,22.22,9,44.76,15.61,66.52a81.21,81.21,0,0,0,32.89,44.74c5.55,3.75,9.3,10.46,13.17,16.29,1.86,2.8,2.08,6.68,3.31,11,2.44-4.54,4.36-8.1,6.83-12.68.58,1.92.87,2.36.8,2.73a5.17,5.17,0,0,1-.76,2.14c-8.45,11.34-5.55,21.7,2.59,31.69A49.12,49.12,0,0,1,83,295c.49.74,1.28,2,1.8,1.9,7.66-.95,16,3.5,23-3.56,2-2,5.76-2.27,8.73-3.3,2.25-.77,4.77-1.07,6.71-2.31,3-1.88,5.49-4.4,8.2-6.64l1.55,1.8a84.9,84.9,0,0,1-7.46,6.52c-3.28,2.3-2.81,4.11-.13,6.45,2,1.79,3.8,3.94,5.68,5.93-2.16.61-3.24,0-4.12-.76-2.16-2-4.12-4.14-6.34-6-4.2-3.58-8.61-2.53-11.77,1-.94,1.05.74,5,1.93,7.27,4.89,9.31,11.23,18.06,14.74,27.83,2.64,7.36,5.81,9.67,13.12,8.8,3.32-.39,4.58-1.18,6.07-4.31,5.3-11.12,11.31-21.89,17-32.82,1-1.87,3-4.93,2.39-5.58-1.68-1.88-4.47-4-6.73-3.86-2.82.13-5.77,2-8.27,3.75s-4.52,4.19-6.75,6.33c-.47-.52-.95-1-1.43-1.55a42.27,42.27,0,0,1,4.72-5.16c3.53-2.83,4.32-5.32,0-8-2.63-1.63-5.21-3.35-7.81-5L140.4,281c1.31,1,2.56,2.14,3.94,3.07,3.16,2.12,6.21,4.5,9.61,6.14,3.79,1.83,7.92,2.93,11.88,4.42,2,.75,3.91,2,6,2.42,11.77,2.43,20-1.66,23.86-13.41a10.22,10.22,0,0,1,2.05-3.58c3.54-4,2.8-7.83.48-12.13-2.06-3.84-3.44-8-5.13-12.07l1.8-.78ZM4.27,142.15c-.51,2.38-1.07,3.66-1,4.91.9,17.58.94,35.28,3.09,52.71,2.7,21.95,10.57,42,29.27,55.72,4.24,3.11,4.31,6,3.23,10.39-3.25,13.16-4.42,26.34,1.91,39.05,5.25,10.56,16.4,14.75,25.74,9.84,11.47-6,14.69-16.94,8.77-27.84-3-5.47-6.1-11.31-7.11-17.32C66,257.06,63.22,245.52,50.3,239.56a22,22,0,0,1-4.73-3.62c-17.14-14.65-25.95-34.22-31.93-55.25C10.14,168.39,7.56,155.83,4.27,142.15Zm264.53,1.36L267,143.4c-.41,1.76-.79,3.54-1.23,5.3-3.43,13.81-6.05,27.89-10.49,41.37-6.73,20.39-16.83,39-35.84,50.8C212,245.51,206.76,251.56,206,260c-1.18,12.46-6,23.17-12.75,33.33a6.12,6.12,0,0,0-.69,4.25c2.24,10.14,11.44,18.72,20,18.92,10.28.24,17.84-6,21.19-17.52,3.47-11.91,1.64-23.65-.75-35.47-.41-2,.66-5.39,2.23-6.62A75.05,75.05,0,0,0,260,222.82c7.33-20.26,8.14-41.39,8.77-62.56C268.94,154.68,268.8,149.1,268.8,143.51ZM166.55,29l-2.31-1.25c-6.19,7.25-12.58,14.34-18.52,21.8C120.74,81,113.29,116,123.23,155c5.09,20,9.16,40.28,13,60.57,1.56,8.28,1.2,16.91,1.71,25.39l1.88.67c2.18-5.4,6.71-11.07,6.13-16.16-2.14-19-4.86-38-9.45-56.48-5.16-20.84-10.2-41.31-5.78-63,4.27-20.9,15.8-37.82,27.9-54.78C163,45.11,164,36.51,166.55,29ZM93.29,379.88c5.94-10.92,12.48-22.47,18.47-34.29,1.61-3.19,1.53-7.23,2.22-10.89l-2.43-.78L98.64,353.5l-2-1.39c4-6.38,7.61-13,12-19.06,4.13-5.74,0-8.32-3.5-12.42-5,9.43-9.69,18.14-14.34,26.85l-1.62-.71a29.87,29.87,0,0,1,1.52-4.63c3.51-7,7.23-13.85,10.65-20.86.59-1.19.72-3.53,0-4.28-5.47-5.53-18.43-3.27-21.53,3.84-3.92,9-8,18-10.92,27.25-3.1,9.78-5,19.94-7.12,28.85ZM209.67,377a8.62,8.62,0,0,0-.27-2.5c-5.41-17.34-10.53-34.78-16.51-51.93-2.92-8.39-13.08-11.22-20.61-6.48-1.18.75-2.1,3.88-1.51,5.15,3.35,7.23,7.23,14.2,10.81,21.32a19.16,19.16,0,0,1,1.08,4.34l-1.52.46L167.1,321c-5.44,4-6.95,7.8-3,13.31,4.1,5.68,7.56,11.83,11.3,17.77l-2,1.36L160.37,333.9l-1.88.5c0,2.9-1,6.33.17,8.62,6.6,12.71,13.73,25.14,20.21,36.83Zm-73.08,61a50.11,50.11,0,0,1,6-.86c6,0,8.77-3.15,10.07-8.86a66.1,66.1,0,0,0-2.51-38.72c-.48-1.28-2.5-2-3.81-3-1,1.71-2.88,3.49-2.77,5.13.37,5.3,1.59,10.53,2.21,15.82.12,1-1,2.15-1.49,3.23a12.71,12.71,0,0,1-1.59-3.28c-.85-5.33-1.52-10.69-2.2-15.59h-9c-.7,4.74-1.35,9.83-2.23,14.87a18.19,18.19,0,0,1-1.79,4c-.46-1.45-1.45-3-1.29-4.35.6-5,1.91-9.9,2.26-14.9.11-1.59-2-3.34-3-5-1.21.93-3.28,1.7-3.49,2.83-1.71,8.79-4.37,17.68-4.16,26.48.24,9.82-.49,22.2,15.32,22,.2,0,.4.41,1.06,1.14-2.35,3-5.3,5.8-7.07,9.22-2.67,5.14,9.67,13.73,13.86,9.57C148.19,450.56,143.1,444.52,136.59,438ZM88.07,95.26c-2.09,12.59.16,23.9,5.19,31.78,17.15,26.88,26.61,56.42,29.57,88,.94,9.94,3.84,18.49,11.29,26.59a46.42,46.42,0,0,0,.23-5.4c-1.2-13.41-1.47-27-3.91-40.17-5-27.29-11.64-54.28-25.9-78.54C100.22,110.16,94.38,103.69,88.07,95.26Zm62.15,127c2.72-6.29,7.23-11.66,6.68-16.44a228,228,0,0,0-8.35-41.1c-5.25-16.91-10.21-33.52-.22-49.93,5.21-8.55,11.37-16.93,18.68-23.66,6.84-6.3,4.66-12.84,4.86-21-2.44,1.77-3.92,2.74-5.29,3.86a97.32,97.32,0,0,0-32.51,49.5c-1.35,4.68-2.09,10.06-1.19,14.75,2.58,13.46,6.45,26.67,9.26,40.1C145.06,192.32,147.34,206.42,150.22,222.27ZM116,130.84c0-3.82-.4-6.92.07-9.88,1.87-11.73,2.71-23.82,6.3-35C130,62.05,145.6,43,163.14,25.59c5.38-5.32,6.47-11.5,8-20-3.86,3-6.4,4.84-8.83,6.83-23.89,19.62-44,42.05-51.53,73.05C107.07,100.66,103.58,116.25,116,130.84Zm-11.67,268-2-.57c2.3-6.12,4.69-12.21,6.86-18.38.48-1.35.89-3.58.18-4.37-4.46-4.94-9.19-3.87-11.29,2.3-.73,2.17-1.56,4.32-2.08,6.55-3.07,13.11-4.32,26.15,4.24,37.85,4.21,5.76,9.38,10.62,17.93,11.44-5.25-16.78-3.87-32.57,1.8-48.31.47-1.32-3.29-4.29-5.37-6.18-.21-.2-3,1.49-3.53,2.75C108.59,387.52,106.5,393.23,104.28,398.89Zm56-195.82c11.61-7.71,20.16-17.21,25.9-29.21,11.42-23.81,9-49.35,9.1-74.55,0-.12-.48-.25-1-.5-4.46,4.35-8.31,8.52-8,15.87a124.4,124.4,0,0,1-1.86,25.17c-2.94,17.5-7,34.91-20.87,47.41C158.19,192.05,158.18,196.49,160.24,203.07ZM75.68,110.81c1.37,10-1.64,19.14,4.84,28.11,13.58,18.78,24.84,39,31.37,61.54,1.43,4.95,4.25,9.49,7.06,15.59C122.54,190.61,94.46,122.65,75.68,110.81Zm94.2,287.58-2.28.79c-2.1-5.47-4-11-6.43-16.36-.64-1.45-2.63-2.31-4-3.44-1.57,2.48-4.68,5.11-4.45,7.4.95,9.52,3.57,18.89,4.28,28.41.45,6-1.4,12.2-2.29,18.87,10.47-3.23,17.38-9.71,21-19.42,4.92-13.14,2-25.89-2.48-38.53-1.28-3.62-3.08-4.67-6.41-2.73-2.67,1.55-6.57,1.84-3.85,7.05C165.94,386.07,167.64,392.37,169.88,398.39ZM184.26,95.77c-5.42,5.59-9.78,8.69-10.19,15.61-1.33,22.12-5.15,43.68-16.08,63.53-1.9,3.44-.85,8.51-1.16,12.82l2.91.32C184.31,162.57,183,129.93,184.26,95.77ZM124.44,440.22c-2.56-1.19-3.61-1.59-4.59-2.13-6-3.3-11.93-6.64-17.9-9.95-1-.58-2-1.49-3.11-1.63-9.4-1.18-17.68,1.29-24.24,8.27-1,1.09-1.73,3.93-1.06,4.94,5.61,8.44,13,14.94,23.29,16.53,8.48,1.3,16.56-.07,23.57-6.88-29.21-1.61-29.21-1.61-31-5.5,4.73,1.16,9.19,2.68,13.77,3.24s9.14.12,13.71.12l0-2c-4.9-.72-9.92-1-14.67-2.3s-9-3.53-13.48-5.35c.28-.77.56-1.55.85-2.32C100.24,440.24,111,443.8,124.44,440.22Zm25.24.44c11.49,3.38,22.21-.92,33.13-4.53-7.94,7.09-18,8-28,8.95l.48,2.72,29.28-3.27c-11,6.52-21.36,6.31-32.16,4.84a14.79,14.79,0,0,0,4.68,4.07c16.82,8.14,32.39-.17,41.57-13.9a3.59,3.59,0,0,0,.22-2.91c-2.82-6.87-20.85-13.22-27.35-9.45C164.2,431.41,157.13,436,149.68,440.66ZM106.17,202.35c-1.29-1.64-1.8-2.63-2.59-3.23C82,182.7,74.94,159.78,73.11,133.94c-.38-5.42-5.46-10.51-8.38-15.76l-2.2.85c.8,9.4,1.1,18.88,2.51,28.19,2.26,14.91,4,30,16.13,41.38C88.19,195.19,94.87,201.68,106.17,202.35ZM154.92,172c5.35-4.12,6.68-10,3.84-15.72a36.18,36.18,0,0,1-3.22-8.56c-3.29-15.64,3.68-28.24,13-39.57,4.49-5.46,3.28-10.81,3.36-16.89C146.32,104.9,138.28,144.39,154.92,172Zm53.91-53.27-3.38-.89c-2.57,7-6.46,13.87-7.45,21.12-2.19,16-5.42,31.5-14.56,45-4.28,6.32-9.83,11.78-15.16,18.05,13.61-2.16,21.88-11.57,27.87-21.47,5.24-8.67,7.38-19.55,9.38-29.75C207.59,140.3,207.81,129.44,208.83,118.73ZM147.66,371.85c-.46-3.87.5-9.61-1.65-11.23a16.72,16.72,0,0,0-18.6-.78c-2,1.13-2.06,5.84-2.57,9a48.53,48.53,0,0,0-.08,7.34c0,4.6,6.37,12.19,10.86,12.82a2.83,2.83,0,0,0,1.63-.55C143.56,384.73,150.79,381.56,147.66,371.85Zm4.68-12.5c3.35-2.08,7.95-3.32,8.95-5.93,1.35-3.52-6.46-9.17-10.65-9.11-10,.16-19.94.08-29.9-.13-3.69-.08-10.8,5.2-9.9,9,.49,2.1,5.21,3.21,8,4.73a1.41,1.41,0,0,0,.91,0C130.53,355.21,141.26,352.81,152.34,359.35ZM51.43,151.51c-1.86,18.31,20.14,51.9,36.94,56.85,3.77-6.16,3.42-6.48-1.41-11A119.49,119.49,0,0,1,72.2,181.72C65,172.1,58.52,161.91,51.43,151.51ZM63,414.06c1.16,4,2.21,7.59,2.8,9.6L93.5,413.45c-1.78-.59-3.37-1.1-5-1.64-2.59-.87-5.9-1.09-7.53-2.85-1.29-1.38-1.46-5.28-.4-7,1.19-1.91,4.3-2.65,6.62-3.81,1.25-.62,2.59-1.06,3.89-1.58-1-1.29-1.81-3.58-2.92-3.71a197.56,197.56,0,0,0-21.31-1.68c-6.48-.09-6.49,4.13-5,9.23,5.47-1.59,10.19-.74,11.09,5.31C73.93,412.3,69,413.86,63,414.06Zm117.33-16.87c7.14.24,12.19,1.55,12.11,7.91-.07,6.17-4.52,8-10.51,6.38-.75-.21-2.16,2-2.33,2.2l26.68,10.18,2.66-9.75c-5.81-.25-10.78-1.71-9.9-8.28.87-6.42,6-6.76,11.21-5.61,1.89-5.77.22-9.35-5.88-9.2a166.06,166.06,0,0,0-20.4,1.83C182.55,393.06,181.51,395.68,180.31,397.19ZM78.54,313.44l1.39,1.31c21.69-10.76,29.37,4.56,36.87,19.86,4.47-4.69,5.24-9.2,1.73-14.31-3.37-4.92-6.15-10.27-9.79-15-4.9-6.31-17.85-7.83-23.87-2.49C81.94,305.46,80.6,309.86,78.54,313.44ZM220.29,150.38A15.85,15.85,0,0,0,219,152c-10.34,17.43-21.11,34.5-36.81,47.87-1,.89.3,4.56.53,6.94,1.67-.27,3.75,0,4.94-.88C206.06,192,219.61,175.19,220.29,150.38ZM108,197.75C101,176.28,90.41,158,77.23,139.49,76.05,160.84,91.88,190.68,108,197.75Zm46.32,135.72c4.8-6.22,9-13.18,14.65-18.57,6.81-6.48,15.13-4.53,22.92-.27.6-7.27-3.54-13.15-9.68-14.1-9.11-1.42-17.31-.46-22.16,9A116.15,116.15,0,0,1,153.28,321C149.9,326,151.3,330.25,154.28,333.47Zm71-145.07c-2.67,3.06-4,4.87-5.61,6.38-9.1,8.51-17.8,17.54-27.61,25.12-4.56,3.52-4.39,5.82-1.38,11.54,10.2-8.7,19.71-17.18,29.63-25.14C225.93,201.83,225.31,196.19,225.32,188.4Zm-178.85.76c-.93,8-.07,14,5.88,18.67,9.65,7.55,19,15.5,28.87,23.62,3-5.47,3.2-8.08-1.17-11A179.47,179.47,0,0,1,59.81,204C55.16,199.76,51.31,194.62,46.47,189.16Zm86.9-76.3C142.1,95.67,156.9,81.16,156.84,59,144,75.45,134.83,92.45,133.37,112.86ZM164,157.6c2.84-16.23,5.44-31.06,8-45.9C157.84,122.57,153.26,145.92,164,157.6ZM57.26,184.8c2.32,7.57,2.74,14.23,6.11,18.64,4.32,5.65,10.9,9.64,16.76,14,1.29,1,3.66.46,5.54.64-.35-2.62-.07-5.56-1.23-7.74-1-2-3.79-3-5.55-4.65C72.19,199.32,65.58,192.86,57.26,184.8ZM187,219.23c14.56-4.33,27.13-20.81,25.2-32.33-7.58,7.11-14.88,14.94-23.24,21.41C184,212.11,184.78,215.08,187,219.23ZM169.53,368.62c-2.4-9.27-4.32-10.52-12.93-8.34a29.32,29.32,0,0,0-4,.8c-.93.37-2.28,1.31-2.31,2-.19,5.56-.1,11.14-.1,17.3Zm-48.24,11.12V362l-13.53-4-5.22,10.15Zm89.83,7.46c-.7-1.3-1.88-5.35-3-5.34-9,.12-18,.92-27,1.85-.66.07-1.61,2.87-1.37,4.21.15.87,2.28,2.06,3.44,2C192,389.2,200.86,388.23,211.12,387.2Zm-149.77,0c9.41.79,18.06,1.61,26.73,2.15,1.42.09,2.91-1,4.36-1.59-.75-1.46-1.36-4.07-2.29-4.19-7.89-1-15.81-1.82-23.75-2.27C61.41,381.05,60.86,384.44,61.35,387.23ZM223.83,208l-30.53,24.6a11.19,11.19,0,0,0,8.76-.61C211.8,226.38,220.35,219.48,223.83,208ZM77.65,234.69l.44-2.07L47.3,207.71c4,11,12.1,18.11,21.61,23.84C71.51,233.12,74.72,233.67,77.65,234.69ZM97.41,419.9c-.38-.11-2.14-.62-3.89-1.15-6.44-1.94-20.74,3-24.41,8.87-.73,1.16.06,3.28.15,5,1.28-.07,2.74.25,3.8-.27C80.51,428.63,87.87,424.79,97.41,419.9Zm78.89,1c7.59,3.78,14.59,7.33,21.66,10.74a24.77,24.77,0,0,0,4.59,1.21c-.11-2,.59-4.78-.47-5.89a26,26,0,0,0-22.37-8.15C178.09,418.92,176.62,420.64,176.3,420.85ZM133.76,482.6l4.41.08c.86-6.19,1.9-12.37,2.32-18.59,0-.69-3.4-2.23-5.24-2.25-1.36,0-4,1.92-3.9,2.81C131.84,470.66,132.89,476.62,133.76,482.6Zm57.45-77.2c-2.41-2-4-4.37-5.27-4.19-1.71.23-3.16,2.38-4.72,3.71,1.43,1.48,2.66,3.77,4.33,4.17C186.79,409.38,188.61,407.19,191.21,405.4ZM86.37,399.27c-1.82,2.64-3.88,4.32-3.72,5.76s2.41,2.88,3.74,4.3c1.46-1.47,3.77-2.77,4.09-4.46C90.72,403.61,88.38,401.87,86.37,399.27ZM66,400.88c-1.86,2.8-4,4.62-3.66,5.83.42,1.65,2.68,2.84,4.15,4.22,1.23-1.44,3.35-2.82,3.44-4.33S68,403.6,66,400.88Zm145.92,6.3c-2.85-2.19-4.38-4.28-5.78-4.2s-3.88,2.12-4,3.49,1.92,4,3.23,4.16C207,410.81,208.78,409,211.93,407.18ZM154,341.1l-4-9.17-3.89,9.17Zm-31.48-7.29-1.64,0c-.41,2.23-.83,4.45-1.24,6.68l6,.89Z"/><path class="cls-1" d="M171.84,245.8c.86.64,1.85,1,2.13,1.65,1.95,4.71,4.29,6.55,8.3,1.74.23-.27,3.1.73,3.33,1.54a73,73,0,0,1,2.53,12.13c.16,1.48-.76,3.84-1.95,4.56-4.17,2.53-3.09,4.65-.3,7.38a40.87,40.87,0,0,1,4,5.53l-1.41,1.13a55,55,0,0,1-5.14-5.68c-2.31-3.34-4.91-3.71-8.69-2.5-9.8,3.14-19.76,4.7-29.45-.45-6-3.18-11.76-3.38-17.79-.12-9.61,5.19-19.72,4-29.5,1-4.73-1.45-7.54-.7-9.82,3.32C87,279,86.07,280.93,85,282.86l-2.71-2.57,6.81-9c-6.76-6.79-7.53-15-2-23.58,5.21,6.82,9.61,5.7,13.93-1.26-.54,1.49-.78,3.21-1.69,4.44-2.9,3.91-1.69,6.48,2,8.94a87.89,87.89,0,0,1,7.8,6.41c9.35,7.82,12.16,8,23.91.81l-25.91-24.87,2.08-2.23L134,263.67c.45-4.37.79-7.74,1.14-11.11l1.89,0c.39,3.24.77,6.48,1.32,11.12l24.75-23.82,1.53,1.65-26,24.73c9.49,7.15,14.6,7.12,22.25.85,1.9-1.56,3.81-3.08,5.72-4.63C171.5,258.49,171.56,258.29,171.84,245.8Zm-68.53,24.81.77-1.61L90.42,257.76c0,2.87-.86,6.5.15,7.12C94.5,267.31,99,268.78,103.31,270.61Zm76.45-11.95-13.3,10.88C178.9,268.82,182.79,265.44,179.76,258.66Z"/><path class="cls-2" d="M220,303.49c6.68-7.07,7.49-15.42,3.92-23.86a15.81,15.81,0,0,0-8.16-7.66c-4.47-1.72-7.43,1.85-9.61,5.71-3.56,6.31-3,18.22,1.43,23.95,3.26,4.2,7.25,5.29,12,2.32"/><path class="cls-2" d="M55.07,305.79c9.88-.88,12.53-12,11.46-22.1a8.94,8.94,0,0,0-1.87-5c-2.48-2.58-5.37-6.41-8.22-6.52s-7.13,2.84-9,5.64c-5.48,8.15-3.16,24.75,7.18,28"/></svg>